<svg width="171" height="36" viewBox="0 0 171 36" fill="none" xmlns="http://www.w3.org/2000/svg">
<path d="M74.8525 0C76.0876 0 77.149 0.23425 78.0361 0.702148C78.9404 1.15265 79.645 1.79343 80.1494 2.625C80.6539 3.45682 80.9062 4.45415 80.9062 5.61523H77.6182C77.6182 4.71414 77.3747 4.02942 76.8877 3.56152C76.418 3.09362 75.7397 2.85938 74.8525 2.85938C73.9654 2.85938 73.2781 3.09363 72.791 3.56152C72.3041 4.02941 72.0605 4.7052 72.0605 5.58887V12.0332C76.4147 11.6786 80.8181 11.4971 85.2637 11.4971C87.15 11.4971 89.0288 11.5311 90.8994 11.5957L93.499 0.259766H97.7002L100.713 12.2324C104.058 12.552 107.374 12.9743 110.656 13.4961L110.527 0.259766H114.52L119.678 15.1973C119.712 15.2047 119.746 15.2122 119.78 15.2197C119.737 14.7539 119.688 14.2297 119.634 13.6475C119.582 12.8851 119.539 12.1137 119.504 11.334C119.469 10.5368 119.451 9.84311 119.451 9.25391V0.259766H122.426V15.8223C125.223 16.4856 127.993 17.2226 130.731 18.0303L135.228 0.259766H139.429L144.936 22.959C153.894 26.5496 162.454 30.9239 170.529 35.998C148.779 24.0323 124.244 16.4999 98.1436 14.624V14.6348L98.0215 14.6162C93.8079 14.3163 89.5536 14.1631 85.2637 14.1631C54.354 14.1631 25.2946 22.082 0 35.9971C8.02443 30.9552 16.5272 26.6049 25.4238 23.0273L30.9062 0.259766H35.1064L39.6396 18.0771C42.409 17.2574 45.2095 16.51 48.0391 15.8379V0.259766H54.0664C55.3363 0.259766 56.4325 0.494014 57.3545 0.961914C58.2937 1.4298 59.0241 2.08843 59.5459 2.9375C60.0677 3.76923 60.329 4.75679 60.3291 5.90039C60.3291 7.14812 60.0069 8.24902 59.3633 9.20215C58.7371 10.1551 57.8849 10.8309 56.8066 11.2295L58.0625 13.793C61.603 13.1884 65.1833 12.7015 68.7988 12.333V5.61523C68.7988 4.45415 69.0422 3.45682 69.5293 2.625C70.0338 1.79328 70.7391 1.15268 71.6436 0.702148C72.5655 0.234334 73.635 4.02822e-06 74.8525 0ZM28.8604 21.6914C31.3927 20.7405 33.9555 19.852 36.5469 19.0273L35.5508 14.6348H30.4883L28.8604 21.6914ZM133.824 18.9775C136.387 19.7903 138.922 20.6654 141.428 21.6016L139.872 14.6348H134.811L133.824 18.9775ZM51.3008 15.0996C52.4619 14.8494 53.6276 14.6116 54.7979 14.3867L53.623 11.6973H51.3008V15.0996ZM113.319 5.71875C113.372 6.42926 113.415 7.15717 113.45 7.90234C113.485 8.6475 113.502 9.3322 113.502 9.95605V13.9746C114.676 14.183 115.845 14.404 117.01 14.6377L113.189 3.89941C113.224 4.40191 113.267 5.00838 113.319 5.71875ZM33.0195 3.09375C32.9673 3.40565 32.8715 3.9079 32.7324 4.60059C32.6107 5.27641 32.4451 6.03053 32.2363 6.8623L31.0889 11.9834H34.9502L33.8027 6.88867C33.6114 6.03952 33.4458 5.27644 33.3066 4.60059C33.1676 3.9079 33.0717 3.40566 33.0195 3.09375ZM137.341 3.09375C137.289 3.40564 137.194 3.90801 137.055 4.60059C136.933 5.27638 136.767 6.03058 136.559 6.8623L135.41 11.9834H139.272L138.124 6.88867C137.933 6.03952 137.767 5.27644 137.628 4.60059C137.489 3.90789 137.393 3.40564 137.341 3.09375ZM95.6123 3.09375C95.5601 3.40566 95.4643 3.90791 95.3252 4.60059C95.2034 5.27636 95.0388 6.03059 94.8301 6.8623L93.7402 11.7188C95.0102 11.7848 96.2762 11.8655 97.5381 11.9609L96.3955 6.88867C96.2042 6.03952 96.0386 5.27644 95.8994 4.60059C95.7604 3.9079 95.6645 3.40564 95.6123 3.09375ZM51.3008 8.83789H54.0664C54.9884 8.83789 55.7106 8.58654 56.2324 8.08398C56.7541 7.58148 57.0146 6.88847 57.0146 6.00488C57.0146 5.10387 56.7541 4.40196 56.2324 3.89941C55.7106 3.37953 54.9884 3.11914 54.0664 3.11914H51.3008V8.83789Z" fill="white"/>
</svg>
