<svg width="771" height="771" viewBox="0 0 771 771" fill="none" xmlns="http://www.w3.org/2000/svg">
<path d="M385.37 6.81543C594.439 6.81543 763.923 176.3 763.923 385.369C763.923 594.439 594.439 763.923 385.37 763.923C176.3 763.923 6.81592 594.439 6.81592 385.369C6.81593 176.3 176.3 6.81545 385.37 6.81543Z" fill="url(#paint0_linear_2007_1026)"/>
<path d="M762.923 385.369C762.923 176.852 593.887 7.81543 385.37 7.81543C177.667 7.81545 9.13704 175.534 7.82373 382.928L7.81592 385.369C7.81592 593.886 176.852 762.923 385.37 762.923V763.923C176.3 763.923 6.81592 594.439 6.81592 385.369C6.81593 176.3 176.3 6.81545 385.37 6.81543C594.439 6.81543 763.923 176.3 763.923 385.369C763.923 594.439 594.439 763.923 385.37 763.923V762.923C593.887 762.923 762.923 593.886 762.923 385.369Z" fill="#9EDEF7"/>
<path d="M769.739 385.369C769.739 173.917 598.993 2.34495 387.855 1.00781L385.37 1C173.089 1 1 173.088 1 385.369C1.00003 597.65 173.089 769.738 385.37 769.738V770.738C172.536 770.738 2.73799e-05 598.203 0 385.369C0 172.535 172.536 0 385.37 0C598.204 0.00020997 770.739 172.536 770.739 385.369C770.739 598.203 598.204 770.738 385.37 770.738V769.738C596.822 769.738 768.394 598.992 769.731 387.854L769.739 385.369Z" fill="#9EDEF7"/>
<path d="M385.37 6.81543C594.439 6.81543 763.923 176.3 763.923 385.369C763.923 594.439 594.439 763.923 385.37 763.923C176.3 763.923 6.81592 594.439 6.81592 385.369C6.81593 176.3 176.3 6.81545 385.37 6.81543Z" fill="url(#paint1_linear_2007_1026)"/>
<path d="M762.923 385.369C762.923 176.852 593.887 7.81543 385.37 7.81543C177.667 7.81545 9.13704 175.534 7.82373 382.928L7.81592 385.369C7.81592 593.886 176.852 762.923 385.37 762.923V763.923C176.3 763.923 6.81592 594.439 6.81592 385.369C6.81593 176.3 176.3 6.81545 385.37 6.81543C594.439 6.81543 763.923 176.3 763.923 385.369C763.923 594.439 594.439 763.923 385.37 763.923V762.923C593.887 762.923 762.923 593.886 762.923 385.369Z" fill="#9EDEF7"/>
<path d="M662.745 240.986C658.16 236.502 652.184 232.885 650.813 226.107C649.842 221.294 650.69 215.264 654.675 211.938C656.766 210.208 659.625 210.063 661.795 211.675C663.941 213.28 664.833 216.027 664.248 218.581C663.659 221.2 660.878 222.136 658.481 221.806C657.094 221.624 655.951 220.883 654.921 219.972C653.848 219.023 653.527 217.703 653.31 216.344C653.063 214.751 653.579 213.533 653.898 212.011C654.243 210.389 652.105 209.052 650.818 210.171C648.352 212.306 648.609 215.628 649.234 218.53C649.956 221.856 652.661 224.539 655.813 225.667C658.941 226.789 662.627 226.438 665.337 224.434C667.86 222.58 668.893 219.454 668.816 216.445C668.752 213.241 666.955 210.201 664.473 208.268C661.855 206.246 658.517 205.852 655.378 206.786C649.669 208.472 646.852 215.096 646.399 220.501C646.024 225.129 647.101 229.505 649.567 233.413C652.267 237.689 656.608 241.35 661.002 243.79C661.649 244.148 662.544 243.841 662.985 243.294C663.592 242.525 663.366 241.589 662.711 240.963L662.745 240.986Z" fill="#617C97"/>
<path d="M668.14 208.869C672.734 213.368 678.702 216.969 680.081 223.763C681.052 228.576 680.205 234.606 676.219 237.932C674.128 239.662 671.27 239.807 669.09 238.179C666.954 236.59 666.052 233.828 666.637 231.274C667.242 228.645 670.007 227.718 672.404 228.048C673.791 228.23 674.934 228.972 675.964 229.882C677.046 230.847 677.358 232.151 677.575 233.51C677.823 235.103 677.307 236.321 676.988 237.844C676.642 239.465 678.78 240.802 680.067 239.683C682.534 237.548 682.276 234.226 681.652 231.324C680.929 227.998 678.209 225.325 675.056 224.196C671.929 223.075 668.243 223.425 665.533 225.429C663.009 227.283 661.977 230.409 662.054 233.418C662.117 236.622 663.914 239.662 666.388 241.58C669.005 243.602 672.343 243.996 675.482 243.062C681.192 241.376 684.009 234.752 684.461 229.347C684.836 224.718 683.76 220.342 681.294 216.434C678.594 212.159 674.252 208.498 669.859 206.057C669.211 205.7 668.317 206.007 667.876 206.554C667.269 207.323 667.494 208.259 668.149 208.884L668.14 208.869Z" fill="#617C97"/>
<path d="M720.031 386.974C720.356 386.738 720.894 386.49 721.164 386.186C721.455 385.859 721.725 385.521 721.971 385.15C722.465 384.418 722.712 383.562 722.824 382.706C723.037 381.051 722.656 379.215 721.769 377.796C720.782 376.231 719.111 375.127 717.293 374.823C715.431 374.519 713.759 375.037 712.267 376.152C709.877 377.942 709.025 381.636 710.034 384.384C711.336 387.897 715.285 389.361 718.695 388.021C719.324 387.774 719.873 387.436 720.412 387.03C721.018 386.557 721.332 386.062 721.624 385.364C721.994 384.474 720.816 383.697 720.075 384.125C719.47 384.474 718.942 384.902 718.336 385.24C717.764 385.555 717.102 385.645 716.452 385.656C715.206 385.69 714.163 385.262 713.434 384.485C712.884 383.9 712.592 382.92 712.581 382.008C712.57 380.949 712.862 380.071 713.456 379.181C713.95 378.449 714.791 377.931 715.835 377.74C717.001 377.515 718.235 377.976 719.077 378.787C719.997 379.654 720.289 380.915 720.277 382.143C720.277 382.616 720.165 383.111 719.974 383.551C719.851 383.843 719.683 384.114 719.503 384.373C719.279 384.711 719.111 385.06 718.841 385.364C718.112 386.163 719.054 387.695 720.031 386.985V386.974Z" fill="#617C97"/>
<path d="M718.348 388.055C719.918 387.852 721.399 387.199 722.97 386.963C723.318 386.906 723.834 386.873 724.383 386.895C724.496 386.895 725.18 386.974 724.81 386.918C725.045 386.952 725.27 387.008 725.505 387.075C725.595 387.098 725.685 387.132 725.763 387.165C725.887 387.244 726.021 387.334 726.156 387.436C725.741 387.132 726.156 387.458 726.246 387.56C726.324 387.65 726.47 387.875 726.19 387.481C726.246 387.56 726.291 387.65 726.336 387.729C726.504 388.044 726.257 387.402 726.38 387.852C726.414 387.976 726.481 388.494 726.425 387.999C726.437 388.156 726.437 388.314 726.425 388.472C726.425 388.551 726.414 388.629 726.403 388.72C726.347 388.934 726.302 389.102 726.246 389.26C726.212 389.35 726.19 389.429 726.156 389.519C725.965 389.902 725.741 390.262 725.483 390.611C725.404 390.713 725.326 390.792 725.259 390.882C725.113 391.051 724.956 391.208 724.799 391.366C724.63 391.524 724.462 391.67 724.282 391.828C724.193 391.906 724.103 391.974 724.002 392.053C724.316 391.805 723.89 392.12 723.834 392.166C721.915 393.449 719.918 393.855 717.574 393.708C715.565 393.573 713.434 392.864 711.706 391.591C709.563 390.003 708.094 387.672 706.837 385.364C705.334 382.605 703.976 379.294 701.16 377.627C699.938 376.906 698.591 376.681 697.189 376.839C695.439 377.042 694.373 378.641 693.565 380.026C692.533 381.805 695.36 383.461 696.291 381.636C696.673 380.882 697.009 380.015 697.918 379.846C698.602 379.722 699.388 380.15 699.938 380.499C701.676 381.602 702.641 384.069 703.606 385.837C705.581 389.44 707.824 393.01 711.515 395.06C716.239 397.695 722.858 397.267 726.84 393.483C728.95 391.49 730.352 388.19 728.433 385.623C727.502 384.384 725.752 383.99 724.294 383.956C721.915 383.911 719.133 384.632 717.237 386.051C716.822 386.355 716.799 387.053 717.024 387.47C717.304 387.976 717.809 388.123 718.336 388.055H718.348Z" fill="#617C97"/>
<path d="M676.186 539.412C677.052 540.492 677.779 541.795 677.96 543.203C678.147 544.714 677.222 545.058 675.875 545.132C673.284 545.272 670.548 544.161 668.494 543.152C664.81 541.348 661.069 539.381 657.654 537.082C656.759 536.482 655.468 536.933 654.945 537.826C654.373 538.819 654.766 539.943 655.66 540.542C657.6 541.85 659.674 542.955 661.721 544.076C664.018 545.353 666.32 546.61 668.799 547.55C672.334 548.907 677.036 550.063 680.272 547.374C682.052 545.908 681.825 543.423 681.345 541.46C680.853 539.414 679.468 537.8 677.495 537.153C676.127 536.722 675.444 538.456 676.199 539.404L676.186 539.412Z" fill="#617C97"/>
<path d="M670.315 547.93C671.395 549.259 672.446 550.942 672.598 552.705C672.656 553.366 672.675 554.21 672.026 554.571C671.412 554.929 670.305 554.613 669.691 554.473C667.68 554.008 665.774 552.947 663.931 552.028C661.953 551.027 660.011 549.934 658.052 548.905C655.95 547.781 653.327 547.459 650.967 547.536C647.519 547.642 644.221 548.943 641.693 551.344C639.741 553.195 642.633 556.137 644.585 554.287C646.929 552.064 649.82 551.482 652.887 551.74C653.137 551.772 653.332 551.801 653.526 551.83C653.818 551.873 654.118 551.93 654.412 552.008C654.908 552.128 655.385 552.277 655.869 552.44C655.236 552.204 655.856 552.448 655.997 552.508C656.394 552.704 656.779 552.942 657.17 553.159C658.393 553.834 659.635 554.481 660.883 555.106C663.01 556.18 665.158 557.26 667.401 558.07C669.582 558.863 672.213 559.198 674.309 557.975C676.646 556.612 676.961 553.579 676.471 551.194C676.016 548.931 674.434 547.005 672.67 545.63C671.035 544.358 668.984 546.285 670.336 547.935L670.315 547.93Z" fill="#617C97"/>
<path d="M657.939 552.853C657.899 553.624 658.357 554.051 658.675 554.702C658.691 554.729 658.755 555.154 658.776 555.284C658.717 554.963 658.677 555.859 658.746 555.48C658.731 555.578 658.484 556.238 658.645 555.895C658.54 556.117 658.406 556.319 658.286 556.514C658.534 556.138 658.128 556.642 658.063 556.716C657.794 556.962 658.37 556.536 657.916 556.801C657.819 556.787 657.66 556.79 657.515 556.786C657.204 556.771 657.933 556.863 657.384 556.774C657.202 556.737 657.027 556.679 656.838 556.629C656.298 556.463 656.945 556.691 656.613 556.547C656.195 556.345 655.794 556.08 655.428 555.813C655.766 556.061 655.239 555.638 655.232 555.625C655.014 555.431 654.81 555.23 654.598 555.015C654.196 554.591 653.833 554.144 653.49 553.667C652.517 552.276 651.748 550.713 651.13 549.132C650.007 546.262 650.126 543.041 649.601 540.035C649.401 538.906 648.069 538.258 647.024 538.547C645.856 538.872 645.299 540.016 645.52 541.152C645.867 542.943 645.997 544.791 646.275 546.587C646.59 548.665 647.258 550.519 648.141 552.408C649.524 555.358 651.628 558.511 654.651 559.97C656.691 560.953 659.144 561.071 660.884 559.379C661.943 558.334 662.523 556.856 662.594 555.39C662.628 554.515 662.338 553.634 661.858 552.917C661.175 551.909 660.366 551.241 659.093 551.414C658.403 551.514 658.01 552.259 657.975 552.885L657.939 552.853Z" fill="#617C97"/>
<path d="M682.345 535.107C682.898 536.262 683.932 537.76 683.104 538.742C683.434 538.353 683.77 538.318 684.161 538.286C683.829 538.266 683.443 538.152 683.071 538.031C682.566 537.863 682.06 537.695 681.547 537.513C681.251 537.401 680.956 537.288 680.673 537.168C680.603 537.138 680.074 536.93 680.561 537.127C680.399 537.061 680.236 536.996 680.074 536.93C678.642 536.324 677.241 535.68 675.833 535.024C671.247 532.856 666.709 530.553 662.26 528.127C661.768 529.323 661.281 530.497 660.789 531.692C661.163 531.848 661.566 531.773 661.947 531.693C662.975 531.467 663.573 530.3 663.311 529.313C663.031 528.23 661.999 527.763 660.969 527.955C660.942 527.97 660.908 527.973 660.873 527.975C661.352 528.034 661.852 528.098 662.331 528.157C660.041 527.142 658.149 530.188 660.316 531.487C664.879 534.238 669.706 536.64 674.505 538.932C677.033 540.147 679.687 541.519 682.411 542.173C683.361 542.402 684.563 542.574 685.427 541.998C687.642 540.546 687.621 537.424 686.622 535.301C686.16 534.306 685.426 533.488 684.537 532.867C683.112 531.9 681.664 533.759 682.316 535.088L682.345 535.107Z" fill="#617C97"/>
<path d="M58.9165 403.676C56.8344 402.455 54.6512 401.385 52.9211 399.666C52.3177 399.059 51.7028 398.141 51.591 397.274C51.528 396.844 51.5794 396.964 51.8599 396.86C52.4575 396.652 53.2542 396.814 53.847 396.888C55.2994 397.069 56.7496 397.215 58.1646 396.785C59.8174 396.275 60.606 394.618 60.501 393.02C60.3219 390.329 57.7954 388.093 55.8034 386.542C54.0586 385.185 51.8786 383.927 50.9429 381.851C50.7968 381.505 50.6829 381.086 50.7124 380.845C50.8444 379.877 50.7664 380.647 50.7785 380.603C51.0283 380.48 51.3094 380.507 51.6129 380.539C52.2423 380.611 52.8739 380.718 53.4913 380.833C56.2927 381.311 59.4613 380.575 60.0251 377.406C60.5535 374.5 58.2801 371.953 56.1289 370.324C55.0646 369.513 53.9477 368.806 52.938 367.926C52.5415 367.574 52.2877 367.271 51.9944 366.804C52.1668 367.097 51.8724 366.371 51.8806 366.385C51.9386 366.612 51.9364 366.576 51.9046 366.296C52.0094 365.604 51.7428 366.537 52.0171 365.972C52.3741 365.676 52.6141 365.633 53.2572 365.566C55.0195 365.405 56.654 365.8 58.3884 365.3C61.056 364.55 60.0388 360.658 57.4415 360.754C54.3454 360.871 50.9626 360.146 48.5285 362.551C46.4408 364.61 46.6179 367.75 48.2121 370.011C49.751 372.211 52.3558 373.321 54.2615 375.145C54.4803 375.356 54.8961 375.903 54.9557 376.036C54.9721 376.064 55.2037 376.845 55.1242 376.388C55.2371 377.031 55.2428 376.041 55.1254 376.648C55.1472 376.524 55.5321 376.082 55.1877 376.463C55.3254 376.311 55.6852 376.181 55.2013 376.325C54.8306 376.275 54.4964 376.222 54.1705 376.184C51.4265 375.804 48.5661 375.806 47.0064 378.441C45.4991 380.972 46.7889 383.909 48.553 385.943C50.2537 387.902 52.507 389.157 54.4487 390.848C55.2254 391.525 55.9967 392.354 56.3431 393.33C56.3968 393.486 56.2394 393.799 56.4404 393.238C56.5289 393.001 56.7001 393.035 56.3868 393.082C55.7153 393.165 54.982 393.078 54.31 393.031C52.2774 392.862 49.9201 392.914 48.5477 394.643C47.1954 396.341 47.7167 398.615 48.6977 400.349C50.512 403.565 54.1434 405.229 57.4214 406.647C59.4225 407.505 60.7558 404.774 58.9105 403.698L58.9165 403.676Z" fill="#617C97"/>
<path d="M76.8587 405.956C74.5156 404.194 71.7576 402.984 69.9857 400.581C69.8014 400.332 69.7231 400.135 69.618 399.859C69.548 399.675 69.7186 399.579 69.5021 399.888C69.6377 399.699 69.9734 399.657 70.2134 399.614C71.2266 399.468 72.2798 399.615 73.2996 399.577C76.0741 399.493 78.725 397.747 78.2959 394.694C77.8519 391.52 74.7968 389.417 72.5646 387.425C71.4526 386.435 70.3084 385.52 69.2652 384.455C68.9195 384.092 68.6591 383.681 68.49 383.2C68.525 383.292 68.483 383.446 68.5709 383.08C68.5693 383.174 68.537 383.248 68.46 383.31C68.6404 383.133 68.6524 383.089 68.484 383.222C68.924 382.842 68.9427 382.906 69.4041 382.756C69.894 382.59 69.8229 382.63 70.4375 382.579C71.9516 382.447 73.3778 382.68 74.7872 381.918C77.8844 380.254 76.6965 376.459 74.8285 374.409C73.9774 373.477 72.936 372.801 71.8865 372.112C71.1126 371.601 69.8935 370.784 69.5067 370.352C69.0237 369.788 68.7446 369.313 68.5591 368.804C68.5137 368.662 68.4601 368.506 68.4146 368.364C68.5427 368.776 68.4074 368.126 68.397 368.077C68.486 367.486 68.2352 368.317 68.514 367.824C68.3221 368.175 68.4981 367.926 68.4981 367.926C68.9918 367.702 69.4883 367.644 70.0214 367.583C71.3157 367.464 72.6396 367.588 73.9366 367.634C75.2419 367.695 76.2454 366.306 76.1586 365.126C76.0586 363.73 74.9112 363.003 73.6059 362.943C70.6553 362.792 66.9271 362.672 64.8965 365.183C63.2141 367.255 63.9187 370.002 65.2066 372.065C66.5027 374.142 68.6897 375.154 70.5996 376.566C70.9776 376.854 71.3861 377.163 71.681 377.535C71.8714 377.763 72.0191 378.014 72.1668 378.265C72.0601 378.084 72.2664 378.693 72.2242 378.363C72.2971 378.713 72.2396 378.615 72.3161 378.423C72.4249 378.156 72.7157 378.103 72.4533 378.14C71.7676 378.231 71.0425 378.158 70.3606 378.191C68.0706 378.261 65.449 379.283 64.4797 381.471C63.1115 384.594 65.7113 387.309 67.9025 389.231C69.0451 390.24 70.2282 391.189 71.391 392.168C72.3985 393.012 73.4903 394.031 73.956 395.275C74.2786 395.018 73.6772 395.285 73.6405 395.287C74.0167 395.185 73.2518 395.303 73.2518 395.303C72.2057 395.393 71.1607 395.26 70.1147 395.35C68.4765 395.497 66.9101 396.218 66.0083 397.587C64.8759 399.272 65.5103 401.351 66.582 402.885C68.5389 405.666 72.1732 407.981 75.497 408.702C77.0172 409.032 78.1621 406.948 76.8751 405.984L76.8587 405.956Z" fill="#617C97"/>
<path d="M570.014 648.471C570.677 648.336 569.471 648.614 569.241 648.709C568.701 648.925 568.17 649.155 567.649 649.437C566.407 650.078 565.189 650.763 563.97 651.447C562.775 652.137 558.831 654.281 558.695 654.341C558.123 654.632 559.255 654.226 559.394 654.203C558.324 654.289 557.418 655.021 557.414 656.164C557.401 657.161 558.306 658.236 559.376 658.15C560.263 658.076 560.977 657.569 561.731 657.133C562.927 656.443 564.097 655.71 565.285 655.005C566.564 654.229 567.842 653.453 569.096 652.634C569.641 652.262 570.194 651.905 570.706 651.476C570.846 651.357 570.972 651.247 571.12 651.142C571.289 651.007 571.787 650.358 571.381 650.839C572.281 649.768 571.42 648.211 570.031 648.5L570.014 648.471Z" fill="#617C97"/>
<path d="M557.48 656.773C557.9 657.861 558.776 658.687 559.175 659.807C559.618 661.035 559.674 662.315 559.597 663.595C559.43 666.165 558.1 668.53 555.987 669.997C555.06 670.627 554.644 671.78 555.237 672.807C555.764 673.72 557.119 674.193 558.046 673.563C561.419 671.254 563.215 667.954 563.648 663.938C563.825 662.239 563.625 660.414 563.07 658.795C562.514 657.176 561.388 655.125 559.607 654.67C558.469 654.376 557.012 655.502 557.495 656.764L557.48 656.773Z" fill="#617C97"/>
<path d="M531.704 673.727C531.034 673.848 532.256 673.599 532.486 673.504C533.099 673.284 533.665 673.014 534.236 672.722C535.567 672.068 536.864 671.357 538.162 670.646C539.388 669.976 540.628 669.298 541.847 668.614C542.629 668.162 543.504 667.771 544.033 667.009C544.642 666.125 544.172 664.818 543.294 664.316C542.302 663.748 541.215 664.166 540.606 665.051C540.626 665.02 541.562 664.175 541.123 664.467C540.995 664.541 540.881 664.607 540.761 664.695C540.385 664.931 533.667 668.943 532.476 669.706C531.966 670.039 531.484 670.355 530.999 670.73C530.859 670.849 530.725 670.946 530.584 671.065C530.43 671.192 529.895 671.843 530.323 671.368C529.386 672.441 530.304 673.965 531.674 673.707L531.704 673.727Z" fill="#617C97"/>
<path d="M540.918 665.46C540.41 667.275 541.66 669.178 542.758 670.522C543.849 671.851 545.384 672.867 546.924 673.594C550.557 675.319 554.439 675.303 558.06 673.555C559.069 673.068 559.337 671.658 558.81 670.745C558.217 669.718 557.01 669.501 556.001 669.989C553.631 671.11 551.009 671.007 548.652 669.915C547.56 669.404 546.606 668.738 545.787 667.879C544.891 666.951 544.599 665.655 543.802 664.67C542.95 663.621 541.246 664.32 540.932 665.452L540.918 665.46Z" fill="#617C97"/>
<path d="M566.216 641.63C564.147 642.121 562.233 643.473 560.427 644.554C557.469 646.3 529.587 663.025 527.858 664.042C525.41 665.455 527.617 669.278 530.057 667.851C533.872 665.648 537.555 663.218 541.281 660.895C547.605 656.958 563.236 647.249 564.71 646.284C565.744 645.611 566.789 644.989 567.633 644.083C568.637 643.028 567.64 641.302 566.216 641.63Z" fill="#617C97"/>
<path d="M398.066 713.41C396.946 714.358 396.069 715.723 395.153 716.868C394.566 717.583 394.036 718.335 393.392 719.013C393.122 719.305 392.503 720.055 392.052 719.859C390.385 719.156 390.245 717.084 390.145 715.561C390.072 714.474 389.896 713.393 389.823 712.307C389.753 711.166 389.813 710.004 389.845 708.857C389.911 706.564 389.819 704.272 389.782 701.985C389.75 699.885 389.812 697.767 389.725 695.664C389.689 694.851 389.187 694.147 388.364 693.919C387.486 693.688 386.236 694.207 386.104 695.184C385.744 697.697 386.008 700.342 386.046 702.872C386.07 704.056 386.074 705.234 386.098 706.418C386.123 708.504 385.964 710.608 386.104 712.681C386.183 713.868 386.373 715.063 386.452 716.25C386.536 717.505 386.716 718.773 387.252 719.927C388.151 721.847 390.132 723.657 392.405 723.496C394.766 723.336 396.306 721.057 397.494 719.289C398.479 717.81 400.331 716.152 400.188 714.255C400.101 713.175 398.913 712.686 398.08 713.402L398.066 713.41Z" fill="#617C97"/>
<path d="M386.918 715.118C385.684 716.686 385.201 718.661 383.016 719.241C382.341 719.415 381.635 719.174 381.159 718.906C380.613 718.608 380.277 718.156 379.933 717.571C379.26 716.425 378.916 714.728 378.778 713.47C378.519 711.256 378.608 709.001 378.575 706.781C378.54 704.076 378.499 701.391 378.43 698.688C378.374 696.428 378.119 694.039 376.835 692.094C375.402 689.956 372.891 689.35 370.461 689.965C368.045 690.572 366.488 692.462 365.502 694.601C364.594 696.574 367.378 698.275 368.492 696.324C369.287 694.971 370.7 693.197 372.532 693.459C374.351 693.729 374.489 696.549 374.573 697.925C374.864 703.02 374.445 708.169 374.919 713.246C375.229 716.629 376.219 720.719 379.615 722.351C381.733 723.371 384.231 723.203 386.203 721.929C388.233 720.603 389.734 718.137 389.235 715.695C389.041 714.764 387.567 714.299 386.944 715.103L386.918 715.118Z" fill="#617C97"/>
<path d="M371.65 695.175C370.703 694.375 369.641 694.822 368.559 695.054C368.037 695.159 367.218 695.658 366.775 695.476C366.996 695.611 367.222 695.725 367.443 695.861C367.496 695.952 367.537 696.05 367.569 696.136C367.561 696.002 367.558 695.847 367.563 695.705C367.581 695.314 367.55 694.932 367.547 694.534C367.524 693.714 367.598 692.908 367.631 692.091C367.695 690.337 365.117 690.098 364.604 691.691C364.232 692.891 364.331 694.172 364.446 695.391C364.566 696.556 364.625 697.859 365.968 698.311C366.842 698.597 367.786 698.339 368.618 698.041C369.57 697.708 370.537 697.49 371.404 696.981C372.019 696.614 372.221 695.666 371.642 695.162L371.65 695.175Z" fill="#617C97"/>
<path d="M404.338 719.364C403.899 720.03 403.554 720.676 403.005 721.214C402.791 721.422 402.483 721.649 402.309 721.713C401.807 721.911 401.342 721.601 401.974 721.955C402.08 722.016 402.659 722.729 402.481 722.396C402.377 722.039 402.297 721.633 402.231 721.219C402.195 720.979 402.08 720.211 402.064 720.064C401.981 719.382 401.912 718.692 401.863 718.008C401.727 716.454 401.652 714.882 401.563 713.318C401.32 707.884 401.315 702.645 401.251 697.214C401.245 697.113 401.25 697.092 401.25 697.092C401.244 694.527 397.427 694.523 397.419 697.096C397.41 702.222 397.32 707.029 397.465 712.085C397.556 715.036 397.643 717.92 398.041 720.853C398.177 721.835 398.291 722.812 398.677 723.739C399.398 725.447 400.766 725.973 402.659 725.645C405.277 725.201 407.102 722.656 407.334 720.164C407.499 718.49 405.14 718.145 404.33 719.351L404.338 719.364Z" fill="#617C97"/>
<path d="M243.552 649.281C242.54 649.894 241.38 650.296 240.322 650.843C237.981 652.023 235.628 653.171 233.298 654.407C227.266 657.622 203.092 670.263 203.013 670.296C202.799 670.394 204.263 669.739 202.878 670.361C201.797 670.841 201.546 672.333 202.094 673.265C202.733 674.352 203.998 674.537 205.068 674.068C206.059 673.631 207.026 673.04 207.983 672.526C210.245 671.334 238.581 656.108 241.416 654.444C242.8 653.644 244.274 652.846 245.498 651.803C246.891 650.617 245.082 648.361 243.541 649.292L243.552 649.281Z" fill="#617C97"/>
<path d="M215.394 671.563C214.704 671.305 213.982 671.3 213.247 671.263C211.824 671.166 210.379 671.202 208.946 671.204C206.868 671.192 204.791 671.18 202.725 671.201C203.307 672.188 203.888 673.154 204.47 674.141C206.482 670.769 208.494 667.397 210.517 664.037C211.791 661.899 208.381 659.921 207.107 662.059C205.083 665.42 203.06 668.781 201.048 672.153C200.288 673.409 201.281 675.107 202.794 675.094C204.871 675.084 206.948 675.03 209.025 674.998C210.402 674.962 211.791 674.981 213.168 674.879C213.935 674.817 214.725 674.821 215.446 674.538C216.911 673.972 216.933 672.147 215.417 671.585L215.394 671.563Z" fill="#617C97"/>
<path d="M235.274 663.752C235.031 662.766 234.495 661.867 234.072 660.947C233.488 659.672 232.871 658.429 232.242 657.176C231.66 655.989 230.037 652.751 229.831 652.329C229.637 651.941 229.555 651.509 229.763 652.218C228.967 649.482 224.571 650.628 225.423 653.354C225.653 654.085 226.098 654.806 226.474 655.483C227.114 656.681 227.787 657.868 228.483 659.034C229.224 660.31 229.977 661.575 230.82 662.774C231.48 663.729 232.108 664.739 233.082 665.387C234.239 666.145 235.575 664.926 235.285 663.741L235.274 663.752Z" fill="#617C97"/>
<path d="M86.8912 217.746C88.1505 218.192 89.4964 218.486 90.7912 218.868C92.156 219.268 93.5343 219.617 94.8919 220.081C97.5658 220.987 100.169 222.27 102.651 223.622C105.161 224.973 107.574 226.481 109.752 228.312C110.802 229.199 111.782 230.14 112.719 231.134C113.175 231.609 113.598 232.103 114.016 232.614C114.516 233.24 114.91 233.882 115.671 234.229C116.863 234.785 118.068 234.118 118.156 232.823C118.258 231.255 116.886 229.921 115.912 228.815C114.951 227.731 113.909 226.709 112.805 225.779C110.348 223.724 107.641 222.016 104.801 220.529C102.01 219.074 99.0436 217.747 96.0029 216.99C94.5198 216.612 93.005 216.355 91.4922 216.126C89.9904 215.891 88.3669 215.548 86.8707 215.97C85.9295 216.238 86.0311 217.456 86.8866 217.764L86.8912 217.746Z" fill="#617C97"/>
<path d="M93.6429 204.223C94.0034 205.632 94.9927 206.714 95.8655 207.847C96.8076 209.073 97.8267 210.256 98.8877 211.385C101.042 213.699 103.673 215.553 106.308 217.288C108.979 219.06 111.839 220.506 114.815 221.652C116.183 222.183 117.592 222.558 119.014 222.883C120.5 223.215 122.522 223.786 123.882 222.885C124.969 222.167 124.941 220.776 123.862 220.038C122.81 219.299 121.21 219.368 119.98 219.097C118.651 218.808 117.35 218.415 116.069 217.982C113.382 217.054 110.849 215.716 108.432 214.225C106.01 212.751 103.613 211.146 101.452 209.319C100.366 208.395 99.3363 207.394 98.329 206.38C97.3217 205.367 96.2865 204.281 95.1997 203.357C94.4954 202.759 93.401 203.29 93.6383 204.24L93.6429 204.223Z" fill="#617C97"/>
<path d="M99.8587 228.588C100.26 229.269 101.38 229.354 102.035 228.998C102.618 228.669 103.101 227.97 103.375 227.39C103.703 226.677 104.162 225.963 104.489 225.25C105.173 223.749 106.085 222.31 106.924 220.897C107.805 219.431 108.762 217.996 109.68 216.568C110.15 215.847 110.631 215.121 111.112 214.394C111.324 214.084 111.548 213.766 111.767 213.467C111.798 213.42 112.294 212.817 112.069 213.032C113.77 211.366 111.117 208.704 109.422 210.381C108.941 210.858 108.597 211.493 108.207 212.051C107.717 212.738 107.269 213.446 106.81 214.16C105.82 215.688 104.864 217.225 103.944 218.801C103.118 220.235 102.334 221.691 101.597 223.177C101.221 223.933 100.963 224.738 100.67 225.535C100.419 226.204 100.183 226.924 100.199 227.648C100.647 227.189 101.113 226.735 101.567 226.287L101.264 226.444C100.235 226.44 99.3296 227.714 99.8477 228.594L99.8587 228.588Z" fill="#617C97"/>
<path d="M103.509 559.375C102.822 559.296 102.201 559.333 101.544 559.069C101.44 559.022 101.283 558.882 101.212 558.786C101.08 558.556 101.046 558.498 101.119 558.625C101.058 558.89 101.458 558.153 101.315 558.328C101.525 558.084 101.767 557.867 102.009 557.651C102.645 557.085 103.326 556.569 103.989 556.049C107.44 553.29 111.628 551.516 115.394 549.249C114.724 548.38 114.054 547.51 113.384 546.641C113.112 546.859 112.989 547.175 112.884 547.496C112.616 548.356 113.208 549.301 114.058 549.53C114.982 549.779 115.783 549.208 116.088 548.359C116.104 548.334 116.102 548.304 116.118 548.28C115.854 548.616 115.608 548.957 115.344 549.294C117.099 548.02 115.654 545.33 113.736 546.377C111.254 547.717 108.757 549.006 106.291 550.399C103.904 551.746 101.751 553.311 99.6196 555.047C97.9626 556.387 97.0712 558.311 98.091 560.342C99.1789 562.518 102.192 563.077 104.21 562.019C105.55 561.322 104.79 559.554 103.517 559.416L103.509 559.375Z" fill="#617C97"/>
<path d="M103.644 552.433C101.924 552.553 99.8673 553.173 98.2235 552.391C96.573 551.597 96.7639 549.863 97.7675 548.609C99.3389 546.645 101.815 545.507 103.963 544.328C106.14 543.148 108.327 542.038 110.24 540.428C111.753 539.156 113.037 537.541 112.97 535.466C112.891 533.106 111.043 531.308 108.792 530.877C106.522 530.44 104.171 531.399 103.341 533.641C102.709 535.353 103.245 537.419 104.315 538.823C105.535 540.433 107.397 541.38 109.411 541.428C111.716 541.476 113.673 539.993 115.656 539.032C117.304 538.234 119.011 537.907 120.801 538.36C121.572 538.558 122.371 538.909 123.018 539.394C123.839 540.022 124.277 540.781 124.781 541.654C125.9 543.644 129.006 541.85 127.842 539.887C126.519 537.648 124.896 536.134 122.459 535.196C120.174 534.309 117.627 534.478 115.371 535.336C114.251 535.753 113.181 536.309 112.136 536.882C111.252 537.362 110.212 538.023 109.147 537.872C108.315 537.755 107.624 537.327 107.093 536.698C107.298 536.948 106.954 536.457 106.954 536.457C106.961 536.469 106.69 535.92 106.801 536.193C106.613 535.735 106.578 535.541 106.579 535.172C106.578 534.958 106.605 534.82 106.701 534.642C106.898 534.268 106.582 534.727 106.895 534.423C106.722 534.599 107.228 534.231 107.216 534.237C107.87 533.86 108.746 534.212 109.301 534.566C110.734 535.485 109.213 537.298 108.431 538.01C107.79 538.594 106.887 538.962 106.137 539.411C104.888 540.132 103.618 540.819 102.342 541.495C100.026 542.725 97.6833 544.016 95.8224 545.902C93.5185 548.213 92.7545 552.132 95.5172 554.428C98.0043 556.486 101.546 556.08 104.296 554.86C105.474 554.333 104.897 552.353 103.65 552.445L103.644 552.433Z" fill="#617C97"/>
<path d="M544.569 79.4698C544.569 79.4698 544.599 79.5221 544.621 79.5613C544.58 79.1841 544.519 78.8016 544.479 78.4244C544.08 79.4072 544.545 80.5295 545.055 81.364C545.692 82.4206 546.388 83.4597 547.129 84.4552C548.748 86.5931 550.695 88.4514 552.824 90.0468C554.996 91.6869 557.715 92.6056 560.344 93.2115C562.808 93.774 566.129 94.2188 567.8 91.829C568.344 91.04 567.888 90.0867 567.228 89.6014C566.19 88.8494 564.994 88.9219 563.76 88.929C562.757 88.9412 561.82 88.7048 560.858 88.4837C558.55 87.9515 556.471 87.0243 554.543 85.6598C552.735 84.3823 551.054 82.7165 549.648 81.0122C548.992 80.2282 548.493 79.3523 547.761 78.6479C547.127 78.0252 546.886 77.295 545.846 77.2757C544.76 77.2663 544.027 78.5493 544.576 79.4829L544.569 79.4698Z" fill="#617C97"/>
<path d="M548.946 83.8804C548.056 84.7668 547.538 86.0289 546.902 87.1155C546.266 88.2022 545.665 89.3205 545.009 90.4018C543.66 92.6548 542.193 94.8208 540.88 97.1055C539.782 99.0028 538.62 100.85 537.494 102.729C536.642 104.169 535.533 105.864 536.781 107.382C537.474 108.231 538.89 108.117 539.626 107.39C540.458 106.555 540.348 105.382 539.668 104.525C539.817 104.786 539.98 105.074 540.152 105.375C540.074 106.187 540.1 106.416 540.214 106.035C540.356 105.795 540.51 105.514 540.676 105.225C540.904 104.83 541.153 104.44 541.381 104.045C542.605 101.97 543.897 99.924 545.113 97.8357C546.323 95.7682 547.604 93.7638 548.752 91.6799C549.298 90.6806 549.837 89.6682 550.315 88.6395C550.87 87.4428 551.49 86.2961 551.648 84.9833C551.826 83.52 549.826 82.9471 548.918 83.8619L548.946 83.8804Z" fill="#617C97"/>
<path d="M558.099 89.2091C557.437 89.8226 556.983 90.6464 556.511 91.4101C555.952 92.295 555.399 93.1592 554.84 94.0441C553.719 95.7801 552.683 97.5716 551.619 99.3446C549.622 102.692 547.41 105.938 545.524 109.36C544.258 111.634 547.597 113.55 548.975 111.349C551.042 108.031 553.157 104.737 555.175 101.395C556.164 99.7354 557.062 98.0073 557.988 96.2977C558.478 95.3835 558.913 94.4322 559.375 93.4995C559.811 92.582 560.392 91.6142 560.554 90.6132C560.769 89.2153 559.27 88.1751 558.132 89.2068L558.099 89.2091Z" fill="#617C97"/>
<path d="M530.544 107.998C531.439 108.346 532.493 108.269 533.445 108.288C534.451 108.309 535.488 108.295 536.486 108.425C538.318 108.643 540.211 109.366 541.847 110.187C543.413 110.978 544.465 112.489 545.38 113.941C545.858 114.689 546.337 115.438 546.625 116.28C546.959 117.234 547.012 118.215 547.453 119.142C548.309 120.889 550.665 120.191 551.214 118.614C551.972 116.428 550.522 113.79 549.362 112.029C548.04 110.014 546.572 108.171 544.527 106.875C542.622 105.672 540.031 105.009 537.803 104.709C536.581 104.553 535.381 104.558 534.155 104.7C532.996 104.838 531.642 104.846 530.546 105.278C529.192 105.809 529.227 107.462 530.549 107.978L530.544 107.998Z" fill="#617C97"/>
<path d="M658.342 384.737C658.342 534.959 536.339 656.737 385.842 656.737C235.344 656.737 113.342 534.959 113.342 384.737C113.342 234.516 235.344 112.737 385.842 112.737C536.339 112.737 658.342 234.516 658.342 384.737Z" fill="#031018"/>
<path d="M657.342 384.737C657.342 235.07 535.789 113.737 385.842 113.737C235.895 113.737 114.342 235.07 114.342 384.737C114.342 534.405 235.895 655.737 385.842 655.737V656.737C235.344 656.737 113.342 534.959 113.342 384.737C113.342 234.516 235.344 112.737 385.842 112.737C536.339 112.737 658.342 234.516 658.342 384.737C658.342 534.959 536.339 656.737 385.842 656.737V655.737C535.789 655.737 657.342 534.405 657.342 384.737Z" fill="#9FD8F6" fill-opacity="0.23"/>
<path d="M457.669 121.638L456.703 121.38L483.945 19.7122L484.911 19.971L457.669 121.638Z" fill="#9FD8F6" fill-opacity="0.25"/>
<path d="M288.957 751.281L287.991 751.022L315.233 649.355L316.199 649.614L288.957 751.281Z" fill="#9FD8F6" fill-opacity="0.25"/>
<path d="M649.704 457.064L649.963 456.098L751.63 483.34L751.371 484.306L649.704 457.064Z" fill="#9FD8F6" fill-opacity="0.25"/>
<path d="M20.0611 288.351L20.32 287.385L121.987 314.627L121.729 315.593L20.0611 288.351Z" fill="#9FD8F6" fill-opacity="0.25"/>
<path d="M579.929 192.819L579.222 192.112L653.647 117.686L654.354 118.393L579.929 192.819Z" fill="#9FD8F6" fill-opacity="0.25"/>
<path d="M118.998 653.75L118.291 653.042L192.717 578.617L193.424 579.324L118.998 653.75Z" fill="#9FD8F6" fill-opacity="0.25"/>
<path d="M578.523 579.324L579.23 578.617L653.655 653.042L652.948 653.75L578.523 579.324Z" fill="#9FD8F6" fill-opacity="0.25"/>
<path d="M117.593 118.393L118.3 117.686L192.725 192.112L192.018 192.819L117.593 118.393Z" fill="#9FD8F6" fill-opacity="0.25"/>
<path d="M650.218 315.591L649.959 314.626L751.626 287.384L751.885 288.35L650.218 315.591Z" fill="#9FD8F6" fill-opacity="0.25"/>
<path d="M20.5752 484.304L20.3164 483.338L121.984 456.096L122.243 457.062L20.5752 484.304Z" fill="#9FD8F6" fill-opacity="0.25"/>
<path d="M455.748 649.611L456.714 649.352L483.956 751.02L482.99 751.278L455.748 649.611Z" fill="#9FD8F6" fill-opacity="0.25"/>
<path d="M287.036 19.968L288.002 19.7091L315.243 121.377L314.278 121.635L287.036 19.968Z" fill="#9FD8F6" fill-opacity="0.25"/>
<path d="M403.968 41.5085C402.766 40.1519 400.359 40.1792 398.765 40.6674C396.842 41.2432 395.31 42.6159 393.901 43.9586C392.521 45.2844 391.265 46.5803 389.55 47.5083C387.911 48.3939 386.163 49.1644 384.356 49.5967C382.629 49.1818 381.061 48.4615 379.475 47.674C377.616 46.7658 376.257 45.3804 374.809 43.9471C373.486 42.6583 372.026 41.4079 370.238 40.7537C368.585 40.1598 365.999 40.0534 364.728 41.4943C363.915 42.4225 364.454 43.7421 365.711 43.8354C366.421 43.8848 367.078 43.573 367.799 43.675C368.63 43.7933 369.291 44.0657 369.986 44.4956C371.537 45.4598 372.706 47.0309 373.972 48.2927C375.116 49.4478 376.451 50.3183 377.909 51.0224C376.332 51.5399 374.912 52.3216 373.591 53.3403C370.489 55.716 369.084 59.9127 369.112 63.6534C369.126 67.1673 370.615 70.6705 373.287 73.0568C374.899 74.4957 376.912 75.3948 378.999 75.9784C380.612 76.4379 387.769 76.4509 389.332 76.0784C391.491 75.5647 393.46 74.5915 395.164 73.239C398.068 70.9356 399.462 67.195 399.571 63.6512C399.685 59.9477 398.17 56.0285 395.336 53.5378C394.006 52.3709 392.417 51.5456 390.728 50.9918C392.174 50.2542 393.491 49.433 394.695 48.2845C395.926 47.0812 396.998 45.6748 398.419 44.6577C399.082 44.1862 399.769 43.8575 400.575 43.6963C401.411 43.5183 402.154 43.8618 402.967 43.8141C404.221 43.733 404.777 42.4024 403.951 41.4792L403.968 41.5085ZM395.259 63.4031C395.298 65.9438 394.281 68.3566 392.344 70.0947C391.202 71.1105 389.658 71.6489 388.197 72.0231C386.912 72.3565 382.072 72.3671 380.874 72.1033C379.378 71.7735 377.79 71.2214 376.59 70.2746C374.547 68.6484 373.533 66.1877 373.457 63.6871C373.372 60.8986 374.536 58.2266 376.56 56.2633C377.631 55.2289 378.99 54.5799 380.407 54.1324C381.535 53.7702 382.743 53.5779 383.877 53.1926C383.916 53.1903 383.948 53.2112 383.987 53.2089C384.112 53.2168 384.228 53.21 384.359 53.1947C384.478 53.2257 384.618 53.2251 384.734 53.2183C384.764 53.2013 384.811 53.2137 384.841 53.1968C385.865 53.5391 386.965 53.7403 388.001 54.0363C389.448 54.4524 390.785 55.0876 391.932 56.0451C394.104 57.8914 395.237 60.6564 395.267 63.4178L395.259 63.4031Z" fill="url(#paint2_linear_2007_1026)"/>
<path d="M201.862 109.961C201.821 109.279 201.566 108.659 201.54 107.968C201.519 107.214 201.743 106.419 201.955 105.711C202.308 104.458 203.179 103.491 204.314 102.876C206.912 101.457 210.495 103.504 212.59 104.837C219.105 108.985 224.299 115.005 229.425 120.62C230.202 121.463 231.65 121.353 232.442 120.573C233.347 119.667 233.161 118.483 232.446 117.604C229.447 113.808 225.95 110.298 222.362 107.023C219.259 104.195 215.838 101.247 211.974 99.5027C208.143 97.7802 203.82 97.5725 200.442 100.471C199.017 101.697 198.103 103.557 197.68 105.334C197.233 107.287 197.261 110.418 199.347 111.413C200.378 111.908 201.935 111.271 201.862 109.961Z" fill="#617C97"/>
<path d="M240.063 87.9061C240.224 85.6745 237.756 84.234 235.958 83.5574C234.102 82.8534 231.968 82.8145 230.039 83.3832C225.75 84.669 223.93 88.8675 223.434 92.8863C222.915 97.0799 223.881 101.586 224.753 105.643C225.747 110.376 227.071 115.18 228.875 119.667C229.303 120.731 230.226 121.469 231.463 121.138C232.544 120.857 233.354 119.643 233.012 118.549C230.701 111.247 228.208 103.809 227.761 96.0777C227.632 93.6303 227.698 89.7993 229.945 88.098C230.969 87.3253 232.264 87.0216 233.52 87.2246C234.253 87.3463 235.024 87.607 235.694 87.9063C236.445 88.2393 236.894 88.9084 237.563 89.3496C238.66 90.0676 239.991 89.0371 240.078 87.8972L240.063 87.9061Z" fill="#617C97"/>
<defs>
<linearGradient id="paint0_linear_2007_1026" x1="339.022" y1="-54.0337" x2="412.827" y2="639.736" gradientUnits="userSpaceOnUse">
<stop stop-color="#08161F"/>
<stop stop-color="#040B0F"/>
</linearGradient>
<linearGradient id="paint1_linear_2007_1026" x1="339.022" y1="-54.0337" x2="412.827" y2="639.736" gradientUnits="userSpaceOnUse">
<stop stop-color="#08161F"/>
<stop stop-color="#040B0F"/>
</linearGradient>
<linearGradient id="paint2_linear_2007_1026" x1="385.37" y1="0" x2="385.37" y2="770.738" gradientUnits="userSpaceOnUse">
<stop stop-color="#617C97"/>
</linearGradient>
</defs>
</svg>
