<svg width="794" height="794" viewBox="0 0 794 794" fill="none" xmlns="http://www.w3.org/2000/svg">
<g filter="url(#filter0_d_108_2544)">
<mask id="path-1-inside-1_108_2544" fill="white">
<path d="M396.554 24C605.623 24 775.107 193.484 775.107 402.554C775.107 611.623 605.623 781.107 396.554 781.107C187.484 781.107 18 611.623 18 402.554C18 193.484 187.484 24 396.554 24Z"/>
</mask>
<path d="M396.554 24C605.623 24 775.107 193.484 775.107 402.554C775.107 611.623 605.623 781.107 396.554 781.107C187.484 781.107 18 611.623 18 402.554C18 193.484 187.484 24 396.554 24Z" fill="url(#paint0_linear_108_2544)"/>
<path d="M396.554 24L396.554 23L396.554 23L396.554 24ZM775.107 402.554L776.107 402.554V402.554L775.107 402.554ZM396.554 781.107L396.554 782.107H396.554V781.107ZM18 402.554L17 402.554V402.554H18ZM396.554 24V25C605.071 25 774.107 194.037 774.107 402.554L775.107 402.554L776.107 402.554C776.107 192.932 606.175 23 396.554 23V24ZM775.107 402.554H774.107C774.107 611.071 605.071 780.107 396.554 780.107V781.107V782.107C606.175 782.107 776.107 612.175 776.107 402.554H775.107ZM396.554 781.107L396.554 780.107C188.037 780.107 19 611.071 19 402.554H18H17C17 612.175 186.932 782.107 396.554 782.107L396.554 781.107ZM18 402.554L19 402.554C19 194.037 188.037 25 396.554 25L396.554 24L396.554 23C186.932 23 17 192.932 17 402.554L18 402.554Z" fill="#9EDEF7" mask="url(#path-1-inside-1_108_2544)"/>
</g>
<mask id="path-3-inside-2_108_2544" fill="white">
<path d="M396.554 17.1846C609.388 17.1848 781.923 189.72 781.923 402.554C781.923 615.387 609.388 787.923 396.554 787.923C183.721 787.923 11.1841 615.387 11.1841 402.554C11.1841 189.72 183.721 17.1846 396.554 17.1846Z"/>
</mask>
<path d="M396.554 17.1846L396.554 16.1846H396.554V17.1846ZM781.923 402.554L782.923 402.554V402.554H781.923ZM396.554 787.923L396.554 788.923L396.554 788.923L396.554 787.923ZM11.1841 402.554L10.1841 402.554L10.1841 402.554L11.1841 402.554ZM396.554 17.1846L396.554 18.1846C608.835 18.1848 780.923 190.272 780.923 402.554H781.923H782.923C782.923 189.168 609.94 16.1848 396.554 16.1846L396.554 17.1846ZM781.923 402.554L780.923 402.554C780.923 614.835 608.835 786.923 396.554 786.923L396.554 787.923L396.554 788.923C609.94 788.923 782.923 615.94 782.923 402.554L781.923 402.554ZM396.554 787.923V786.923C184.273 786.923 12.1841 614.835 12.1841 402.554L11.1841 402.554L10.1841 402.554C10.1841 615.94 183.168 788.923 396.554 788.923V787.923ZM11.1841 402.554H12.1841C12.1841 190.272 184.273 18.1846 396.554 18.1846V17.1846V16.1846C183.168 16.1846 10.1841 189.168 10.1841 402.554H11.1841Z" fill="#9EDEF7" mask="url(#path-3-inside-2_108_2544)"/>
<mask id="path-5-inside-3_108_2544" fill="white">
<path d="M396.554 24C605.623 24 775.107 193.484 775.107 402.554C775.107 611.623 605.623 781.107 396.554 781.107C187.484 781.107 18 611.623 18 402.554C18 193.484 187.484 24 396.554 24Z"/>
</mask>
<path d="M396.554 24C605.623 24 775.107 193.484 775.107 402.554C775.107 611.623 605.623 781.107 396.554 781.107C187.484 781.107 18 611.623 18 402.554C18 193.484 187.484 24 396.554 24Z" fill="url(#paint1_linear_108_2544)"/>
<path d="M396.554 24L396.554 23L396.554 23L396.554 24ZM775.107 402.554L776.107 402.554V402.554L775.107 402.554ZM396.554 781.107L396.554 782.107H396.554V781.107ZM18 402.554L17 402.554V402.554H18ZM396.554 24V25C605.071 25 774.107 194.037 774.107 402.554L775.107 402.554L776.107 402.554C776.107 192.932 606.175 23 396.554 23V24ZM775.107 402.554H774.107C774.107 611.071 605.071 780.107 396.554 780.107V781.107V782.107C606.175 782.107 776.107 612.175 776.107 402.554H775.107ZM396.554 781.107L396.554 780.107C188.037 780.107 19 611.071 19 402.554H18H17C17 612.175 186.932 782.107 396.554 782.107L396.554 781.107ZM18 402.554L19 402.554C19 194.037 188.037 25 396.554 25L396.554 24L396.554 23C186.932 23 17 192.932 17 402.554L18 402.554Z" fill="#9EDEF7" mask="url(#path-5-inside-3_108_2544)"/>
<path d="M673.293 258.177C668.713 253.692 662.742 250.073 661.373 243.292C660.403 238.477 661.25 232.444 665.231 229.117C667.32 227.387 670.176 227.242 672.344 228.854C674.488 230.46 675.379 233.207 674.795 235.763C674.206 238.383 671.429 239.32 669.033 238.989C667.648 238.807 666.506 238.066 665.477 237.154C664.405 236.205 664.084 234.885 663.867 233.525C663.62 231.931 664.136 230.713 664.454 229.19C664.8 227.568 662.664 226.23 661.378 227.35C658.914 229.486 659.171 232.809 659.795 235.712C660.516 239.039 663.219 241.723 666.368 242.852C669.493 243.974 673.175 243.623 675.883 241.619C678.404 239.764 679.435 236.636 679.358 233.626C679.295 230.421 677.499 227.38 675.02 225.446C672.404 223.423 669.07 223.029 665.934 223.963C660.23 225.65 657.415 232.276 656.963 237.684C656.589 242.314 657.664 246.692 660.128 250.601C662.825 254.878 667.163 258.541 671.552 260.982C672.199 261.34 673.092 261.033 673.533 260.486C674.139 259.717 673.914 258.78 673.259 258.154L673.293 258.177Z" fill="#617C97"/>
<path d="M678.684 226.047C683.273 230.547 689.235 234.15 690.613 240.947C691.583 245.762 690.736 251.795 686.754 255.122C684.666 256.852 681.81 256.997 679.632 255.369C677.498 253.779 676.597 251.016 677.182 248.461C677.786 245.831 680.548 244.904 682.943 245.234C684.329 245.416 685.471 246.158 686.5 247.069C687.581 248.034 687.892 249.339 688.11 250.698C688.356 252.292 687.841 253.51 687.522 255.033C687.177 256.655 689.313 257.993 690.599 256.873C693.063 254.738 692.805 251.414 692.182 248.511C691.46 245.184 688.742 242.509 685.593 241.381C682.468 240.259 678.786 240.609 676.078 242.614C673.558 244.469 672.526 247.596 672.603 250.606C672.666 253.812 674.462 256.853 676.932 258.771C679.548 260.794 682.882 261.188 686.018 260.254C691.722 258.567 694.537 251.94 694.989 246.533C695.363 241.903 694.288 237.525 691.824 233.615C689.127 229.338 684.789 225.675 680.4 223.234C679.753 222.876 678.86 223.184 678.419 223.731C677.813 224.5 678.038 225.437 678.693 226.062L678.684 226.047Z" fill="#617C97"/>
<path d="M731.215 404.159C731.54 403.922 732.078 403.674 732.348 403.37C732.639 403.044 732.909 402.706 733.155 402.334C733.649 401.602 733.896 400.746 734.008 399.891C734.221 398.235 733.84 396.4 732.954 394.981C731.966 393.415 730.295 392.312 728.477 392.008C726.615 391.704 724.943 392.222 723.451 393.337C721.062 395.127 720.209 398.821 721.219 401.569C722.52 405.082 726.469 406.546 729.88 405.206C730.508 404.958 731.058 404.62 731.596 404.215C732.202 403.742 732.516 403.246 732.808 402.548C733.178 401.659 732 400.882 731.259 401.31C730.654 401.659 730.126 402.087 729.521 402.424C728.948 402.74 728.286 402.83 727.636 402.841C726.39 402.875 725.347 402.447 724.618 401.67C724.068 401.084 723.777 400.105 723.765 399.192C723.754 398.134 724.046 397.255 724.64 396.366C725.134 395.634 725.975 395.116 727.019 394.924C728.186 394.699 729.42 395.161 730.261 395.972C731.181 396.839 731.473 398.1 731.461 399.328C731.461 399.801 731.349 400.296 731.159 400.735C731.035 401.028 730.867 401.298 730.687 401.557C730.463 401.895 730.295 402.244 730.025 402.548C729.296 403.348 730.239 404.879 731.215 404.17L731.215 404.159Z" fill="#617C97"/>
<path d="M729.532 405.24C731.102 405.037 732.583 404.384 734.154 404.147C734.502 404.091 735.018 404.057 735.568 404.08C735.68 404.08 736.364 404.159 735.994 404.102C736.229 404.136 736.454 404.192 736.689 404.26C736.779 404.282 736.869 404.316 736.947 404.35C737.071 404.429 737.206 404.519 737.34 404.62C736.925 404.316 737.34 404.643 737.43 404.744C737.508 404.834 737.654 405.06 737.374 404.665C737.43 404.744 737.475 404.834 737.52 404.913C737.688 405.228 737.441 404.587 737.564 405.037C737.598 405.161 737.665 405.679 737.609 405.183C737.621 405.341 737.621 405.499 737.609 405.656C737.609 405.735 737.598 405.814 737.587 405.904C737.531 406.118 737.486 406.287 737.43 406.445C737.396 406.535 737.374 406.614 737.34 406.704C737.149 407.087 736.925 407.447 736.667 407.796C736.588 407.897 736.51 407.976 736.443 408.066C736.297 408.235 736.14 408.393 735.983 408.551C735.814 408.708 735.646 408.855 735.467 409.012C735.377 409.091 735.287 409.159 735.186 409.237C735.5 408.99 735.074 409.305 735.018 409.35C733.099 410.634 731.102 411.039 728.758 410.893C726.749 410.758 724.618 410.048 722.89 408.776C720.747 407.188 719.278 404.857 718.021 402.548C716.518 399.789 715.16 396.478 712.344 394.812C711.122 394.091 709.775 393.866 708.373 394.023C706.623 394.226 705.557 395.825 704.749 397.21C703.717 398.99 706.544 400.645 707.475 398.821C707.857 398.066 708.193 397.199 709.102 397.03C709.787 396.906 710.572 397.334 711.122 397.683C712.861 398.787 713.825 401.253 714.79 403.021C716.765 406.625 719.008 410.195 722.699 412.244C727.423 414.879 734.042 414.451 738.024 410.668C740.134 408.674 741.536 405.375 739.618 402.807C738.686 401.569 736.936 401.174 735.478 401.141C733.099 401.096 730.317 401.816 728.421 403.235C728.006 403.539 727.984 404.237 728.208 404.654C728.488 405.161 728.993 405.307 729.521 405.24L729.532 405.24Z" fill="#617C97"/>
<path d="M686.722 556.614C687.587 557.69 688.313 558.988 688.494 560.391C688.681 561.896 687.756 562.239 686.411 562.312C683.822 562.452 681.089 561.345 679.037 560.34C675.356 558.543 671.619 556.584 668.207 554.293C667.314 553.695 666.023 554.144 665.501 555.034C664.929 556.023 665.322 557.143 666.215 557.74C668.154 559.043 670.225 560.144 672.27 561.26C674.565 562.533 676.865 563.785 679.341 564.722C682.873 566.073 687.571 567.225 690.804 564.546C692.582 563.086 692.355 560.61 691.875 558.654C691.384 556.616 690 555.008 688.029 554.363C686.663 553.934 685.98 555.662 686.735 556.606L686.722 556.614Z" fill="#617C97"/>
<path d="M680.856 565.1C681.935 566.424 682.985 568.101 683.137 569.857C683.195 570.516 683.214 571.356 682.565 571.716C681.952 572.073 680.846 571.758 680.233 571.618C678.224 571.155 676.32 570.098 674.479 569.182C672.502 568.186 670.562 567.097 668.605 566.071C666.505 564.952 663.884 564.631 661.526 564.708C658.082 564.813 654.787 566.11 652.261 568.501C650.311 570.345 653.2 573.277 655.15 571.433C657.493 569.219 660.381 568.639 663.445 568.896C663.695 568.928 663.889 568.957 664.084 568.985C664.375 569.029 664.675 569.085 664.968 569.163C665.464 569.283 665.94 569.431 666.424 569.593C665.791 569.358 666.411 569.601 666.552 569.661C666.948 569.856 667.333 570.093 667.724 570.309C668.946 570.982 670.186 571.626 671.433 572.249C673.558 573.319 675.704 574.395 677.945 575.202C680.124 575.992 682.752 576.326 684.847 575.107C687.182 573.749 687.496 570.728 687.007 568.352C686.551 566.097 684.971 564.178 683.209 562.809C681.575 561.542 679.526 563.461 680.877 565.105L680.856 565.1Z" fill="#617C97"/>
<path d="M668.492 570.004C668.452 570.773 668.909 571.198 669.228 571.847C669.243 571.874 669.308 572.297 669.329 572.427C669.27 572.106 669.229 572.999 669.298 572.622C669.283 572.72 669.037 573.377 669.197 573.036C669.092 573.256 668.959 573.458 668.839 573.652C669.086 573.277 668.68 573.78 668.616 573.853C668.347 574.098 668.923 573.674 668.469 573.938C668.372 573.924 668.214 573.927 668.069 573.923C667.758 573.908 668.486 573.999 667.937 573.911C667.756 573.874 667.581 573.816 667.392 573.766C666.853 573.601 667.499 573.828 667.167 573.684C666.75 573.484 666.35 573.22 665.984 572.954C666.321 573.201 665.795 572.78 665.787 572.766C665.57 572.573 665.366 572.373 665.155 572.159C664.752 571.736 664.39 571.291 664.047 570.816C663.075 569.43 662.307 567.872 661.69 566.298C660.568 563.438 660.686 560.23 660.162 557.235C659.962 556.109 658.632 555.464 657.587 555.752C656.421 556.076 655.864 557.216 656.085 558.347C656.432 560.132 656.562 561.973 656.84 563.762C657.154 565.832 657.821 567.68 658.703 569.561C660.085 572.5 662.187 575.641 665.208 577.095C667.245 578.074 669.696 578.191 671.434 576.506C672.492 575.465 673.072 573.992 673.142 572.532C673.177 571.661 672.887 570.782 672.407 570.068C671.725 569.064 670.917 568.399 669.645 568.571C668.955 568.67 668.563 569.413 668.528 570.036L668.492 570.004Z" fill="#617C97"/>
<path d="M692.874 552.325C693.427 553.476 694.46 554.968 693.633 555.946C693.962 555.559 694.298 555.524 694.689 555.492C694.357 555.472 693.972 555.359 693.6 555.238C693.095 555.07 692.59 554.903 692.077 554.722C691.782 554.61 691.487 554.498 691.205 554.379C691.134 554.349 690.606 554.141 691.092 554.338C690.93 554.272 690.768 554.207 690.606 554.141C689.175 553.537 687.776 552.896 686.369 552.242C681.788 550.082 677.254 547.789 672.809 545.372C672.317 546.562 671.831 547.732 671.339 548.923C671.713 549.078 672.115 549.004 672.496 548.924C673.524 548.699 674.12 547.536 673.859 546.552C673.579 545.474 672.548 545.009 671.519 545.2C671.492 545.215 671.458 545.217 671.424 545.22C671.902 545.278 672.401 545.343 672.88 545.401C670.593 544.39 668.702 547.424 670.867 548.719C675.425 551.46 680.247 553.852 685.043 556.136C687.568 557.346 690.219 558.713 692.94 559.365C693.89 559.593 695.09 559.764 695.954 559.191C698.167 557.744 698.146 554.633 697.147 552.518C696.686 551.527 695.953 550.712 695.064 550.093C693.641 549.13 692.194 550.982 692.846 552.306L692.874 552.325Z" fill="#617C97"/>
<path d="M70.0441 421.18C67.964 419.938 65.7829 418.849 64.0544 417.102C63.4516 416.484 62.8373 415.551 62.7256 414.669C62.6626 414.232 62.714 414.354 62.9942 414.249C63.5913 414.037 64.3872 414.202 64.9794 414.277C66.4304 414.461 67.8793 414.61 69.2929 414.172C70.9442 413.654 71.7319 411.969 71.6271 410.344C71.4481 407.607 68.9241 405.334 66.934 403.757C65.1909 402.377 63.013 401.098 62.0781 398.986C61.9322 398.635 61.8184 398.209 61.8478 397.964C61.9797 396.979 61.9018 397.763 61.9138 397.718C62.1635 397.593 62.4443 397.62 62.7475 397.653C63.3763 397.726 64.0073 397.835 64.6241 397.952C67.4228 398.438 70.5883 397.69 71.1516 394.467C71.6795 391.512 69.4083 388.923 67.2592 387.266C66.1959 386.441 65.0801 385.722 64.0714 384.828C63.6752 384.469 63.4216 384.161 63.1287 383.687C63.3008 383.985 63.0067 383.246 63.0149 383.26C63.0729 383.492 63.0707 383.455 63.0389 383.171C63.1436 382.466 62.8773 383.415 63.1513 382.841C63.508 382.54 63.7478 382.496 64.3902 382.428C66.1508 382.264 67.7838 382.665 69.5165 382.157C72.1816 381.395 71.1653 377.437 68.5705 377.534C65.4774 377.654 62.0978 376.916 59.666 379.362C57.5804 381.456 57.7573 384.648 59.3499 386.948C60.8874 389.184 63.4897 390.314 65.3936 392.168C65.6121 392.383 66.0275 392.938 66.0871 393.074C66.1035 393.103 66.3348 393.897 66.2555 393.432C66.3682 394.086 66.3739 393.079 66.2566 393.696C66.2785 393.57 66.6629 393.121 66.3188 393.509C66.4565 393.353 66.8159 393.222 66.3325 393.368C65.9621 393.317 65.6283 393.264 65.3027 393.224C62.5613 392.838 59.7036 392.84 58.1454 395.52C56.6395 398.093 57.9281 401.08 59.6906 403.148C61.3896 405.14 63.6407 406.416 65.5806 408.136C66.3565 408.824 67.1271 409.666 67.4732 410.659C67.5268 410.818 67.3695 411.136 67.5704 410.565C67.6588 410.325 67.8298 410.359 67.5168 410.407C66.846 410.491 66.1134 410.403 65.442 410.355C63.4114 410.183 61.0564 410.237 59.6852 411.994C58.3342 413.721 58.855 416.033 59.8351 417.796C61.6476 421.066 65.2755 422.759 68.5504 424.201C70.5496 425.072 71.8816 422.296 70.0381 421.202L70.0441 421.18Z" fill="#617C97"/>
<path d="M87.9691 423.498C85.6282 421.706 82.8729 420.476 81.1027 418.033C80.9185 417.779 80.8403 417.578 80.7353 417.298C80.6654 417.111 80.8358 417.013 80.6196 417.327C80.755 417.135 81.0904 417.093 81.3302 417.049C82.3424 416.9 83.3946 417.05 84.4134 417.011C87.1852 416.926 89.8336 415.15 89.4049 412.047C88.9614 408.819 85.9091 406.68 83.6791 404.654C82.5681 403.648 81.425 402.718 80.3829 401.634C80.0375 401.266 79.7774 400.848 79.6084 400.359C79.6434 400.452 79.6014 400.609 79.6892 400.236C79.6876 400.332 79.6554 400.407 79.5784 400.471C79.7586 400.291 79.7706 400.246 79.6024 400.381C80.042 399.995 80.0606 400.06 80.5216 399.907C81.0111 399.738 80.9401 399.779 81.5541 399.728C83.0667 399.593 84.4915 399.83 85.8996 399.055C88.9938 397.364 87.8071 393.504 85.9408 391.42C85.0905 390.472 84.0502 389.785 83.0016 389.084C82.2284 388.564 81.0105 387.734 80.6241 387.294C80.1416 386.721 79.8628 386.238 79.6775 385.72C79.6321 385.576 79.5785 385.418 79.5331 385.273C79.6611 385.692 79.5259 385.031 79.5155 384.981C79.6044 384.38 79.3539 385.225 79.6323 384.724C79.4407 385.081 79.6165 384.828 79.6165 384.828C80.1098 384.6 80.6058 384.541 81.1384 384.479C82.4314 384.357 83.754 384.484 85.0498 384.531C86.3538 384.592 87.3564 383.18 87.2697 381.981C87.1698 380.561 86.0234 379.822 84.7194 379.761C81.7716 379.607 78.047 379.485 76.0183 382.039C74.3375 384.145 75.0415 386.939 76.3281 389.036C77.623 391.148 79.8079 392.177 81.716 393.613C82.0936 393.906 82.5018 394.22 82.7963 394.599C82.9865 394.83 83.1341 395.085 83.2817 395.341C83.1751 395.156 83.3812 395.776 83.3391 395.44C83.4118 395.796 83.3544 395.696 83.4309 395.501C83.5395 395.23 83.8301 395.176 83.5679 395.213C82.8829 395.306 82.1585 395.232 81.4773 395.266C79.1894 395.337 76.5703 396.375 75.6019 398.601C74.235 401.776 76.8324 404.536 79.0215 406.491C80.163 407.518 81.3449 408.482 82.5066 409.478C83.5132 410.336 84.6039 411.372 85.0692 412.637C85.3914 412.376 84.7906 412.647 84.754 412.649C85.1298 412.546 84.3656 412.665 84.3656 412.665C83.3206 412.757 82.2766 412.621 81.2316 412.713C79.5949 412.863 78.03 413.596 77.1291 414.987C75.9978 416.701 76.6316 418.815 77.7023 420.375C79.6572 423.203 83.2881 425.557 86.6086 426.29C88.1274 426.625 89.2712 424.507 87.9855 423.526L87.9691 423.498Z" fill="#617C97"/>
<path d="M580.652 665.677C581.313 665.542 580.108 665.82 579.879 665.914C579.34 666.13 578.809 666.361 578.289 666.642C577.047 667.282 575.831 667.966 574.614 668.649C573.419 669.338 569.479 671.478 569.343 671.538C568.772 671.83 569.903 671.424 570.041 671.401C568.972 671.486 568.067 672.217 568.063 673.359C568.05 674.354 568.955 675.428 570.024 675.342C570.91 675.268 571.623 674.762 572.376 674.327C573.571 673.638 574.74 672.906 575.927 672.202C577.204 671.427 578.482 670.652 579.735 669.834C580.279 669.463 580.831 669.106 581.342 668.678C581.482 668.559 581.608 668.449 581.756 668.344C581.925 668.209 582.422 667.561 582.017 668.042C582.916 666.972 582.056 665.417 580.668 665.706L580.652 665.677Z" fill="#617C97"/>
<path d="M568.13 673.967C568.549 675.054 569.424 675.879 569.823 676.997C570.266 678.222 570.321 679.501 570.245 680.779C570.077 683.345 568.749 685.706 566.638 687.172C565.712 687.801 565.296 688.952 565.889 689.978C566.415 690.889 567.769 691.362 568.695 690.732C572.065 688.427 573.859 685.132 574.292 681.122C574.468 679.425 574.269 677.603 573.714 675.986C573.159 674.369 572.033 672.322 570.254 671.867C569.117 671.574 567.662 672.698 568.144 673.958L568.13 673.967Z" fill="#617C97"/>
<path d="M542.378 690.896C541.709 691.017 542.93 690.768 543.16 690.673C543.772 690.453 544.337 690.184 544.908 689.893C546.237 689.239 547.533 688.529 548.829 687.819C550.055 687.15 551.294 686.473 552.511 685.79C553.293 685.339 554.167 684.948 554.695 684.188C555.303 683.305 554.834 682 553.957 681.499C552.966 680.932 551.88 681.349 551.271 682.232C551.291 682.202 552.226 681.358 551.788 681.65C551.66 681.723 551.546 681.789 551.426 681.877C551.05 682.113 544.339 686.119 543.149 686.881C542.64 687.213 542.158 687.529 541.673 687.904C541.533 688.023 541.399 688.119 541.26 688.238C541.105 688.365 540.571 689.015 540.998 688.54C540.063 689.612 540.98 691.134 542.348 690.876L542.378 690.896Z" fill="#617C97"/>
<path d="M551.583 682.641C551.075 684.454 552.324 686.353 553.422 687.695C554.511 689.023 556.045 690.037 557.583 690.763C561.213 692.486 565.091 692.47 568.709 690.724C569.717 690.237 569.985 688.83 569.458 687.918C568.866 686.893 567.66 686.677 566.652 687.163C564.284 688.283 561.665 688.18 559.31 687.089C558.219 686.579 557.266 685.914 556.448 685.056C555.552 684.13 555.26 682.836 554.464 681.852C553.613 680.805 551.911 681.502 551.597 682.633L551.583 682.641Z" fill="#617C97"/>
<path d="M576.857 658.846C574.79 659.337 572.877 660.687 571.074 661.766C568.118 663.509 540.263 680.21 538.536 681.225C536.09 682.637 538.295 686.454 540.733 685.028C544.544 682.829 548.223 680.402 551.946 678.083C558.264 674.152 573.88 664.457 575.352 663.494C576.386 662.821 577.43 662.2 578.272 661.296C579.275 660.242 578.28 658.519 576.857 658.846Z" fill="#617C97"/>
<path d="M408.869 730.689C407.749 731.653 406.874 733.041 405.958 734.205C405.371 734.932 404.842 735.696 404.199 736.385C403.929 736.682 403.311 737.445 402.861 737.246C401.195 736.531 401.055 734.424 400.955 732.876C400.882 731.771 400.706 730.672 400.633 729.567C400.564 728.408 400.623 727.226 400.656 726.06C400.721 723.729 400.629 721.399 400.592 719.074C400.56 716.939 400.622 714.786 400.535 712.648C400.499 711.822 399.998 711.105 399.176 710.874C398.299 710.639 397.05 711.166 396.918 712.16C396.558 714.715 396.822 717.403 396.86 719.975C396.884 721.179 396.888 722.377 396.912 723.581C396.937 725.702 396.778 727.841 396.918 729.948C396.997 731.155 397.186 732.369 397.266 733.576C397.349 734.852 397.529 736.142 398.065 737.315C398.963 739.267 400.942 741.106 403.213 740.943C405.572 740.78 407.11 738.463 408.296 736.666C409.281 735.162 411.131 733.477 410.988 731.548C410.902 730.45 409.715 729.953 408.882 730.681L408.869 730.689Z" fill="#617C97"/>
<path d="M397.731 732.426C396.498 734.02 396.016 736.027 393.833 736.617C393.159 736.794 392.453 736.549 391.978 736.276C391.432 735.974 391.097 735.514 390.753 734.919C390.08 733.754 389.737 732.029 389.599 730.75C389.34 728.499 389.429 726.207 389.396 723.95C389.361 721.199 389.32 718.47 389.251 715.722C389.195 713.424 388.94 710.995 387.658 709.018C386.226 706.845 383.717 706.229 381.29 706.853C378.876 707.471 377.321 709.392 376.335 711.567C375.429 713.573 378.21 715.303 379.323 713.319C380.117 711.943 381.528 710.139 383.359 710.406C385.176 710.68 385.314 713.548 385.398 714.946C385.688 720.126 385.27 725.361 385.744 730.523C386.053 733.962 387.042 738.12 390.435 739.779C392.551 740.816 395.047 740.645 397.016 739.349C399.044 738.002 400.544 735.495 400.046 733.012C399.852 732.065 398.379 731.592 397.757 732.41L397.731 732.426Z" fill="#617C97"/>
<path d="M382.478 712.15C381.532 711.337 380.47 711.791 379.389 712.027C378.868 712.134 378.05 712.642 377.607 712.456C377.828 712.594 378.054 712.71 378.274 712.847C378.328 712.94 378.368 713.04 378.401 713.127C378.393 712.991 378.39 712.834 378.395 712.69C378.412 712.291 378.382 711.903 378.378 711.499C378.356 710.665 378.43 709.846 378.462 709.016C378.526 707.232 375.951 706.989 375.439 708.608C375.067 709.829 375.166 711.131 375.281 712.37C375.4 713.554 375.459 714.879 376.801 715.339C377.675 715.629 378.617 715.367 379.448 715.064C380.4 714.726 381.366 714.504 382.232 713.986C382.846 713.614 383.048 712.65 382.47 712.137L382.478 712.15Z" fill="#617C97"/>
<path d="M415.134 736.742C414.695 737.419 414.351 738.076 413.802 738.623C413.589 738.834 413.281 739.065 413.107 739.13C412.606 739.331 412.142 739.017 412.773 739.376C412.879 739.438 413.457 740.163 413.279 739.825C413.175 739.461 413.095 739.048 413.029 738.628C412.994 738.384 412.878 737.603 412.863 737.453C412.78 736.76 412.71 736.059 412.662 735.364C412.526 733.783 412.451 732.186 412.362 730.596C412.119 725.071 412.115 719.745 412.05 714.223C412.044 714.121 412.05 714.1 412.05 714.1C412.044 711.492 408.23 711.488 408.222 714.104C408.213 719.315 408.123 724.202 408.268 729.342C408.359 732.342 408.446 735.274 408.844 738.256C408.979 739.254 409.093 740.247 409.479 741.19C410.199 742.926 411.566 743.461 413.456 743.128C416.072 742.677 417.896 740.089 418.127 737.555C418.292 735.854 415.936 735.502 415.126 736.729L415.134 736.742Z" fill="#617C97"/>
<path d="M254.503 666.3C253.491 666.922 252.332 667.329 251.275 667.883C248.936 669.079 246.586 670.241 244.259 671.492C238.232 674.75 214.081 687.554 214.002 687.587C213.788 687.686 215.251 687.023 213.867 687.653C212.787 688.14 212.537 689.65 213.084 690.594C213.722 691.696 214.987 691.883 216.055 691.408C217.045 690.965 218.012 690.366 218.967 689.846C221.227 688.638 249.536 673.216 252.368 671.53C253.751 670.72 255.224 669.912 256.447 668.855C257.838 667.653 256.031 665.369 254.492 666.312L254.503 666.3Z" fill="#617C97"/>
<path d="M226.372 688.871C225.682 688.609 224.96 688.605 224.227 688.567C222.805 688.469 221.362 688.505 219.929 688.507C217.854 688.495 215.778 688.482 213.714 688.504C214.296 689.504 214.877 690.482 215.458 691.482C217.468 688.067 219.478 684.651 221.499 681.247C222.772 679.081 219.365 677.078 218.092 679.244C216.071 682.648 214.049 686.052 212.04 689.468C211.28 690.74 212.272 692.46 213.783 692.447C215.858 692.437 217.933 692.382 220.009 692.35C221.384 692.313 222.772 692.333 224.147 692.229C224.914 692.166 225.703 692.171 226.424 691.884C227.886 691.311 227.909 689.462 226.394 688.893L226.372 688.871Z" fill="#617C97"/>
<path d="M246.232 680.958C245.99 679.96 245.454 679.049 245.031 678.117C244.448 676.826 243.832 675.567 243.204 674.298C242.621 673.096 241 669.815 240.795 669.388C240.6 668.995 240.519 668.558 240.726 669.276C239.931 666.504 235.54 667.665 236.391 670.426C236.621 671.167 237.065 671.897 237.441 672.583C238.08 673.797 238.753 674.999 239.448 676.179C240.189 677.472 240.941 678.754 241.782 679.968C242.442 680.936 243.069 681.959 244.043 682.614C245.198 683.383 246.533 682.148 246.244 680.947L246.232 680.958Z" fill="#617C97"/>
<path d="M97.992 234.925C99.2501 235.372 100.595 235.667 101.888 236.051C103.252 236.453 104.629 236.803 105.985 237.269C108.656 238.179 111.257 239.467 113.737 240.825C116.245 242.181 118.655 243.695 120.831 245.535C121.88 246.425 122.859 247.37 123.795 248.368C124.251 248.846 124.673 249.341 125.091 249.855C125.591 250.483 125.984 251.128 126.744 251.476C127.935 252.035 129.139 251.365 129.226 250.064C129.329 248.49 127.958 247.15 126.985 246.04C126.025 244.951 124.984 243.924 123.881 242.991C121.426 240.927 118.722 239.212 115.885 237.719C113.096 236.258 110.133 234.925 107.095 234.165C105.613 233.785 104.1 233.527 102.589 233.297C101.088 233.061 99.4663 232.717 97.9715 233.14C97.0312 233.41 97.1328 234.633 97.9875 234.942L97.992 234.925Z" fill="#617C97"/>
<path d="M104.737 221.345C105.097 222.759 106.086 223.846 106.958 224.984C107.899 226.215 108.917 227.403 109.977 228.537C112.13 230.861 114.758 232.722 117.39 234.464C120.059 236.244 122.916 237.696 125.889 238.846C127.256 239.379 128.663 239.757 130.084 240.082C131.568 240.416 133.589 240.99 134.947 240.084C136.033 239.364 136.005 237.967 134.927 237.226C133.877 236.483 132.278 236.553 131.049 236.281C129.722 235.99 128.422 235.596 127.141 235.161C124.457 234.229 121.927 232.885 119.512 231.388C117.092 229.908 114.698 228.296 112.539 226.462C111.454 225.534 110.425 224.528 109.419 223.511C108.412 222.493 107.378 221.403 106.293 220.475C105.589 219.874 104.496 220.407 104.733 221.362L104.737 221.345Z" fill="#617C97"/>
<path d="M110.947 245.811C111.348 246.496 112.467 246.581 113.122 246.223C113.704 245.892 114.186 245.191 114.46 244.609C114.787 243.893 115.246 243.176 115.573 242.46C116.257 240.952 117.167 239.507 118.005 238.089C118.886 236.617 119.842 235.175 120.759 233.741C121.228 233.018 121.709 232.288 122.189 231.559C122.402 231.246 122.625 230.928 122.844 230.627C122.875 230.58 123.37 229.975 123.145 230.191C124.845 228.518 122.194 225.844 120.501 227.528C120.021 228.008 119.677 228.645 119.287 229.205C118.798 229.895 118.351 230.606 117.892 231.323C116.902 232.857 115.947 234.401 115.029 235.983C114.204 237.424 113.42 238.885 112.684 240.378C112.308 241.137 112.05 241.946 111.757 242.745C111.507 243.418 111.271 244.14 111.287 244.867C111.735 244.407 112.2 243.951 112.654 243.501L112.351 243.659C111.323 243.654 110.419 244.934 110.936 245.818L110.947 245.811Z" fill="#617C97"/>
<path d="M114.594 576.535C113.907 576.457 113.287 576.494 112.631 576.23C112.527 576.183 112.37 576.044 112.299 575.947C112.167 575.718 112.134 575.66 112.206 575.786C112.146 576.051 112.545 575.316 112.402 575.49C112.612 575.246 112.854 575.03 113.096 574.814C113.731 574.249 114.411 573.734 115.073 573.215C118.521 570.46 122.705 568.689 126.468 566.426C125.798 565.558 125.129 564.689 124.459 563.821C124.188 564.039 124.065 564.355 123.96 564.675C123.692 565.534 124.283 566.478 125.133 566.706C126.055 566.954 126.857 566.385 127.16 565.536C127.177 565.512 127.175 565.482 127.191 565.458C126.927 565.793 126.681 566.134 126.417 566.47C128.171 565.198 126.727 562.513 124.811 563.557C122.331 564.896 119.837 566.183 117.373 567.574C114.989 568.919 112.837 570.481 110.708 572.215C109.053 573.552 108.162 575.474 109.181 577.502C110.268 579.674 113.278 580.232 115.294 579.175C116.633 578.479 115.873 576.715 114.602 576.576L114.594 576.535Z" fill="#617C97"/>
<path d="M114.728 569.605C113.011 569.724 110.956 570.343 109.313 569.562C107.664 568.77 107.855 567.038 108.858 565.787C110.428 563.826 112.902 562.689 115.047 561.512C117.222 560.334 119.407 559.226 121.319 557.618C122.83 556.348 124.113 554.736 124.046 552.664C123.967 550.308 122.121 548.512 119.871 548.082C117.604 547.646 115.256 548.603 114.426 550.841C113.795 552.551 114.33 554.614 115.399 556.016C116.618 557.623 118.478 558.569 120.49 558.616C122.793 558.664 124.748 557.184 126.729 556.225C128.376 555.428 130.081 555.101 131.869 555.553C132.64 555.751 133.438 556.101 134.084 556.585C134.905 557.213 135.342 557.97 135.846 558.842C136.963 560.829 140.067 559.038 138.904 557.078C137.582 554.842 135.96 553.33 133.526 552.395C131.243 551.509 128.698 551.677 126.445 552.534C125.326 552.95 124.257 553.506 123.213 554.077C122.329 554.557 121.291 555.217 120.226 555.067C119.395 554.95 118.705 554.522 118.175 553.894C118.38 554.143 118.036 553.654 118.036 553.654C118.042 553.665 117.772 553.117 117.883 553.39C117.695 552.932 117.66 552.738 117.661 552.371C117.66 552.157 117.687 552.019 117.783 551.841C117.979 551.468 117.663 551.926 117.977 551.622C117.804 551.799 118.309 551.431 118.298 551.437C118.95 551.061 119.826 551.412 120.381 551.765C121.812 552.683 120.292 554.493 119.511 555.204C118.871 555.787 117.969 556.155 117.22 556.603C115.971 557.323 114.703 558.009 113.428 558.683C111.114 559.911 108.774 561.2 106.915 563.084C104.613 565.391 103.85 569.304 106.61 571.597C109.094 573.651 112.632 573.246 115.38 572.028C116.557 571.502 115.98 569.525 114.735 569.616L114.728 569.605Z" fill="#617C97"/>
<path d="M555.231 96.6732C555.231 96.6732 555.26 96.7255 555.283 96.7647C555.242 96.3879 555.181 96.0057 555.141 95.6289C554.742 96.6107 555.207 97.732 555.716 98.5656C556.352 99.6212 557.048 100.659 557.789 101.654C559.406 103.79 561.351 105.646 563.478 107.24C565.648 108.879 568.364 109.796 570.99 110.402C573.452 110.964 576.77 111.408 578.44 109.021C578.983 108.232 578.528 107.28 577.869 106.795C576.831 106.044 575.636 106.116 574.404 106.123C573.401 106.136 572.465 105.899 571.504 105.678C569.199 105.147 567.121 104.22 565.196 102.857C563.389 101.581 561.71 99.9168 560.305 98.2142C559.65 97.4309 559.151 96.5558 558.419 95.8521C557.786 95.23 557.545 94.5006 556.507 94.4813C555.422 94.4718 554.689 95.7536 555.238 96.6863L555.231 96.6732Z" fill="#617C97"/>
<path d="M559.604 101.08C558.715 101.965 558.197 103.226 557.562 104.312C556.926 105.397 556.326 106.514 555.67 107.595C554.323 109.846 552.857 112.01 551.545 114.292C550.448 116.187 549.288 118.033 548.163 119.91C547.311 121.349 546.203 123.042 547.45 124.558C548.142 125.407 549.558 125.293 550.293 124.567C551.124 123.732 551.014 122.56 550.334 121.704C550.483 121.965 550.647 122.253 550.818 122.553C550.74 123.365 550.766 123.593 550.88 123.213C551.022 122.973 551.175 122.692 551.342 122.403C551.57 122.009 551.818 121.619 552.046 121.225C553.268 119.152 554.559 117.108 555.774 115.022C556.983 112.956 558.263 110.953 559.41 108.872C559.956 107.873 560.494 106.862 560.971 105.834C561.526 104.639 562.145 103.493 562.303 102.181C562.48 100.72 560.483 100.147 559.576 101.061L559.604 101.08Z" fill="#617C97"/>
<path d="M568.748 106.403C568.087 107.016 567.633 107.839 567.162 108.602C566.603 109.486 566.05 110.35 565.492 111.234C564.373 112.968 563.337 114.758 562.274 116.529C560.279 119.873 558.069 123.116 556.185 126.534C554.92 128.807 558.256 130.721 559.633 128.522C561.697 125.207 563.81 121.916 565.826 118.577C566.815 116.919 567.712 115.193 568.637 113.485C569.127 112.572 569.561 111.621 570.022 110.689C570.458 109.773 571.039 108.806 571.201 107.806C571.415 106.409 569.918 105.37 568.781 106.401L568.748 106.403Z" fill="#617C97"/>
<path d="M541.219 125.174C542.113 125.522 543.167 125.445 544.118 125.464C545.122 125.485 546.159 125.471 547.156 125.601C548.986 125.819 550.878 126.54 552.511 127.361C554.076 128.151 555.127 129.661 556.041 131.111C556.519 131.859 556.997 132.607 557.285 133.448C557.619 134.402 557.672 135.381 558.112 136.307C558.967 138.053 561.321 137.355 561.869 135.78C562.627 133.596 561.179 130.961 560.02 129.201C558.699 127.188 557.232 125.347 555.189 124.053C553.286 122.85 550.697 122.188 548.472 121.889C547.251 121.732 546.052 121.737 544.827 121.879C543.669 122.017 542.316 122.025 541.221 122.457C539.869 122.987 539.904 124.638 541.225 125.154L541.219 125.174Z" fill="#617C97"/>
<ellipse cx="397.026" cy="401.922" rx="272.5" ry="272" fill="#031018"/>
<path d="M397.026 130.422C547.248 130.422 669.026 251.977 669.026 401.922C669.026 551.866 547.248 673.422 397.026 673.422C246.804 673.422 125.026 551.866 125.026 401.922C125.026 251.977 246.804 130.422 397.026 130.422Z" stroke="#9FD8F6" stroke-opacity="0.23"/>
<line x1="495.612" y1="37.0261" x2="468.37" y2="138.693" stroke="#9FD8F6" stroke-opacity="0.25"/>
<line x1="326.9" y1="666.669" x2="299.658" y2="768.336" stroke="#9FD8F6" stroke-opacity="0.25"/>
<line x1="762.685" y1="501.007" x2="661.018" y2="473.766" stroke="#9FD8F6" stroke-opacity="0.25"/>
<line x1="133.042" y1="332.295" x2="31.3752" y2="305.053" stroke="#9FD8F6" stroke-opacity="0.25"/>
<line x1="665.185" y1="135.224" x2="590.76" y2="209.65" stroke="#9FD8F6" stroke-opacity="0.25"/>
<line x1="204.255" y1="596.155" x2="129.829" y2="670.58" stroke="#9FD8F6" stroke-opacity="0.25"/>
<line x1="664.486" y1="670.581" x2="590.061" y2="596.155" stroke="#9FD8F6" stroke-opacity="0.25"/>
<line x1="203.556" y1="209.65" x2="129.131" y2="135.224" stroke="#9FD8F6" stroke-opacity="0.25"/>
<line x1="762.94" y1="305.051" x2="661.273" y2="332.293" stroke="#9FD8F6" stroke-opacity="0.25"/>
<line x1="133.297" y1="473.764" x2="31.6303" y2="501.005" stroke="#9FD8F6" stroke-opacity="0.25"/>
<line x1="494.657" y1="768.334" x2="467.415" y2="666.667" stroke="#9FD8F6" stroke-opacity="0.25"/>
<line x1="325.945" y1="138.691" x2="298.703" y2="37.0235" stroke="#9FD8F6" stroke-opacity="0.25"/>
<path d="M414.765 58.6636C413.564 57.3046 411.159 57.3319 409.567 57.821C407.646 58.3978 406.115 59.7729 404.707 61.118C403.329 62.4461 402.074 63.7442 400.361 64.6738C398.723 65.5609 396.977 66.3328 395.171 66.7659C393.446 66.3503 391.88 65.6287 390.295 64.8398C388.438 63.93 387.08 62.5422 385.634 61.1064C384.312 59.8153 382.854 58.5628 381.067 57.9074C379.416 57.3125 376.832 57.2059 375.562 58.6493C374.75 59.5792 375.289 60.901 376.544 60.9945C377.254 61.044 377.91 60.7317 378.63 60.8338C379.46 60.9523 380.122 61.2252 380.816 61.6559C382.365 62.6218 383.533 64.1956 384.798 65.4596C385.94 66.6167 387.274 67.4888 388.73 68.194C387.155 68.7125 385.736 69.4955 384.417 70.516C381.318 72.8959 379.914 77.0999 379.942 80.8472C379.956 84.3672 381.444 87.8765 384.113 90.267C385.723 91.7084 387.735 92.6091 389.82 93.1937C391.432 93.654 398.582 93.6671 400.143 93.2939C402.3 92.7793 404.266 91.8044 405.969 90.4496C408.87 88.1421 410.263 84.395 410.372 80.845C410.486 77.135 408.972 73.2089 406.141 70.7139C404.812 69.545 403.224 68.7182 401.537 68.1634C402.982 67.4245 404.298 66.6019 405.501 65.4514C406.731 64.246 407.801 62.8371 409.221 61.8183C409.883 61.3459 410.57 61.0166 411.375 60.8552C412.21 60.6768 412.953 61.021 413.765 60.9732C415.018 60.892 415.573 59.559 414.747 58.6342L414.765 58.6636ZM406.064 80.5964C406.103 83.1416 405.087 85.5586 403.152 87.2997C402.011 88.3173 400.468 88.8567 399.009 89.2315C397.725 89.5655 392.889 89.5761 391.693 89.3118C390.198 88.9815 388.612 88.4284 387.413 87.4799C385.372 85.8509 384.359 83.3859 384.284 80.8809C384.198 78.0876 385.361 75.4109 387.383 73.4442C388.453 72.4079 389.81 71.7578 391.227 71.3095C392.353 70.9467 393.56 70.754 394.693 70.3681C394.732 70.3658 394.764 70.3867 394.803 70.3844C394.928 70.3923 395.044 70.3855 395.175 70.3702C395.293 70.4012 395.433 70.4006 395.549 70.3938C395.579 70.3768 395.626 70.3892 395.656 70.3723C396.679 70.7152 397.778 70.9167 398.813 71.2132C400.259 71.6301 401.594 72.2664 402.74 73.2256C404.91 75.0751 406.043 77.8449 406.072 80.6111L406.064 80.5964Z" fill="url(#paint2_linear_108_2544)"/>
<path d="M212.853 127.142C212.811 126.461 212.557 125.841 212.531 125.151C212.509 124.397 212.733 123.603 212.946 122.896C213.299 121.644 214.168 120.678 215.303 120.064C217.897 118.646 221.477 120.691 223.57 122.023C230.079 126.167 235.268 132.181 240.389 137.791C241.165 138.633 242.612 138.523 243.403 137.744C244.307 136.839 244.121 135.656 243.407 134.778C240.411 130.985 236.918 127.479 233.333 124.207C230.233 121.381 226.815 118.436 222.955 116.694C219.128 114.973 214.809 114.765 211.434 117.661C210.01 118.886 209.097 120.744 208.674 122.52C208.229 124.47 208.256 127.599 210.34 128.593C211.37 129.087 212.926 128.451 212.853 127.142Z" fill="#617C97"/>
<path d="M251.017 105.108C251.177 102.879 248.712 101.44 246.916 100.764C245.061 100.06 242.929 100.022 241.003 100.59C236.718 101.874 234.899 106.069 234.404 110.084C233.886 114.273 234.851 118.775 235.722 122.828C236.714 127.556 238.037 132.356 239.839 136.838C240.267 137.902 241.189 138.639 242.425 138.308C243.505 138.028 244.314 136.815 243.973 135.722C241.664 128.427 239.174 120.996 238.727 113.272C238.598 110.827 238.663 107 240.909 105.3C241.932 104.528 243.225 104.225 244.48 104.427C245.212 104.549 245.983 104.809 246.652 105.108C247.403 105.441 247.851 106.11 248.519 106.55C249.616 107.268 250.945 106.238 251.032 105.099L251.017 105.108Z" fill="#617C97"/>
<defs>
<filter id="filter0_d_108_2544" x="0" y="0" width="793.107" height="793.107" filterUnits="userSpaceOnUse" color-interpolation-filters="sRGB">
<feFlood flood-opacity="0" result="BackgroundImageFix"/>
<feColorMatrix in="SourceAlpha" type="matrix" values="0 0 0 0 0 0 0 0 0 0 0 0 0 0 0 0 0 0 127 0" result="hardAlpha"/>
<feOffset dy="-6"/>
<feGaussianBlur stdDeviation="9"/>
<feComposite in2="hardAlpha" operator="out"/>
<feColorMatrix type="matrix" values="0 0 0 0 0.0313726 0 0 0 0 0.0862745 0 0 0 0 0.121569 0 0 0 1 0"/>
<feBlend mode="normal" in2="BackgroundImageFix" result="effect1_dropShadow_108_2544"/>
<feBlend mode="normal" in="SourceGraphic" in2="effect1_dropShadow_108_2544" result="shape"/>
</filter>
<linearGradient id="paint0_linear_108_2544" x1="351.026" y1="-29.0781" x2="423.526" y2="652.422" gradientUnits="userSpaceOnUse">
<stop stop-color="#08161F"/>
<stop stop-color="#040B0F"/>
</linearGradient>
<linearGradient id="paint1_linear_108_2544" x1="351.026" y1="-29.0781" x2="423.526" y2="652.422" gradientUnits="userSpaceOnUse">
<stop stop-color="#08161F"/>
<stop stop-color="#040B0F"/>
</linearGradient>
<linearGradient id="paint2_linear_108_2544" x1="395.157" y1="57.4949" x2="395.157" y2="93.5578" gradientUnits="userSpaceOnUse">
<stop stop-color="#617C97"/>
</linearGradient>
</defs>
</svg>
