<svg xmlns="http://www.w3.org/2000/svg" width="1024" height="1024" viewBox="0 0 1024 1024">
    <defs>
        <radialGradient id="bg" cx="0" cy="0" r="1.2">
            <stop offset="0%" stop-color="#1F2230"/>
            <stop offset="55%" stop-color="#111320"/>
            <stop offset="100%" stop-color="#0B0D16"/>
        </radialGradient>
        <linearGradient id="star" x1="0" y1="0" x2="1" y2="1">
            <stop offset="0" stop-color="#A8DFF0"/>
            <stop offset=".55" stop-color="#CBBEF9"/>
            <stop offset="1" stop-color="#F9BDE6"/>
        </linearGradient>
    </defs>
    <rect width="1024" height="1024" fill="url(#bg)"/>
    <g transform="translate(512,512)">
        <circle r="330" fill="url(#star)" opacity=".06"/>
        <path d="M0 -380 L24 -60 L0 -48 L-24 -60 Z" fill="url(#star)"/>
        <path d="M0 380 L24 60 L0 48 L-24 60 Z" fill="url(#star)"/>
        <path d="M-380 0 L-60 -24 L-48 0 L-60 24 Z" fill="url(#star)"/>
        <path d="M380 0 L60 -24 L48 0 L60 24 Z" fill="url(#star)"/>
        <path d="M-270 -270 L-90 -40 L-70 -20 L-40 -90 Z" fill="url(#star)"/>
        <path d="M270 270 L90 40 L70 20 L40 90 Z" fill="url(#star)"/>
        <path d="M270 -270 L40 -90 L20 -70 L90 -40 Z" fill="url(#star)"/>
        <path d="M-270 270 L-40 90 L-20 70 L-90 40 Z" fill="url(#star)"/>
        <circle r="22" fill="#EDEFF6"/>
    </g>
</svg>
