<svg width="48" height="32" viewBox="0 0 48 32" fill="none" xmlns="http://www.w3.org/2000/svg">
<path d="M5.06101 12.5747C6.28205 10.4926 7.35263 8.3094 9.07127 6.57927C9.6787 5.97594 10.5961 5.36102 11.4637 5.24919C11.8935 5.18616 11.7737 5.23761 11.877 5.51809C12.0856 6.11569 11.9231 6.91243 11.8497 7.5052C11.668 8.95759 11.5223 10.4078 11.9526 11.8228C12.4619 13.4756 14.1195 14.2642 15.7172 14.1592C18.4088 13.9801 20.644 11.4536 22.1955 9.46162C23.552 7.71684 24.8106 5.53684 26.8868 4.60111C27.2322 4.455 27.6517 4.34112 27.8919 4.37057C28.8606 4.50258 28.0901 4.42464 28.1342 4.43665C28.2573 4.68651 28.2305 4.96759 28.1979 5.27108C28.1266 5.90048 28.0194 6.53207 27.904 7.14946C27.4262 9.95094 28.1622 13.1195 31.331 13.6833C34.2377 14.2117 36.7841 11.9383 38.4128 9.78714C39.2243 8.72278 39.9315 7.60595 40.8112 6.59625C41.1635 6.1997 41.4664 5.94588 41.9332 5.65264C41.6399 5.82498 42.3667 5.53056 42.3527 5.53877C42.125 5.59681 42.161 5.5946 42.4409 5.5628C43.1334 5.66756 42.2001 5.40101 42.7654 5.67533C43.061 6.0323 43.104 6.27234 43.1709 6.91537C43.3326 8.67769 42.9377 10.3122 43.4373 12.0466C44.1871 14.7142 48.0791 13.697 47.9837 11.0997C47.8662 8.00364 48.5915 4.62082 46.1865 2.18665C44.1272 0.0990472 40.9875 0.276143 38.7262 1.87029C36.5267 3.40919 35.416 6.01402 33.5921 7.91971C33.381 8.1385 32.8348 8.55425 32.701 8.6139C32.6731 8.63031 31.892 8.86188 32.3497 8.78244C31.7061 8.8953 32.6963 8.90098 32.0897 8.78362C32.2138 8.80545 32.6555 9.19026 32.274 8.84589C32.4266 8.98363 32.5562 9.34339 32.4121 8.85951C32.4625 8.48876 32.515 8.15464 32.5536 7.82873C32.9336 5.0847 32.9311 2.22432 30.296 0.664576C27.7651 -0.842707 24.8284 0.447095 22.7938 2.21123C20.835 3.91191 19.5807 6.16518 17.889 8.10692C17.2123 8.88361 16.3836 9.65489 15.407 10.0013C15.2512 10.055 14.9385 9.89759 15.4994 10.0986C15.7359 10.1871 15.7026 10.3583 15.6552 10.045C15.5723 9.37354 15.6591 8.64024 15.7061 7.9682C15.8753 5.93564 15.823 3.57835 14.0947 2.20587C12.3966 0.853608 10.1226 1.37492 8.38871 2.35592C5.17226 4.1702 3.50795 7.80156 2.09011 11.0796C1.23276 13.0807 3.96294 14.414 5.03899 12.5687L5.06101 12.5747Z" fill="#617C97"/>
<path d="M2.78123 30.5169C4.54319 28.1738 5.75329 25.4158 8.15583 23.6439C8.40505 23.4596 8.60273 23.3813 8.87831 23.2762C9.06202 23.2062 9.15877 23.3768 8.84978 23.1603C9.0384 23.2959 9.07988 23.6316 9.12294 23.8716C9.26939 24.8848 9.12198 25.938 9.16044 26.9578C9.24459 29.7323 10.9904 32.3833 14.0429 31.9541C17.2173 31.5101 19.3202 28.455 21.3127 26.2228C22.302 25.1108 23.217 23.9666 24.2826 22.9234C24.6451 22.5777 25.0561 22.3173 25.5374 22.1482C25.4455 22.1832 25.2913 22.1412 25.6577 22.2291C25.5637 22.2275 25.4896 22.1952 25.4272 22.1182C25.604 22.2986 25.6481 22.3106 25.5154 22.1422C25.8953 22.5822 25.8314 22.6009 25.9814 23.0623C26.1476 23.5522 26.1073 23.4811 26.158 24.0957C26.2906 25.6098 26.0568 27.036 26.8191 28.4454C28.4828 31.5426 32.2781 30.3547 34.3282 28.4867C35.2605 27.6356 35.9361 26.5942 36.6256 25.5447C37.1362 24.7708 37.953 23.5517 38.3854 23.1649C38.9493 22.6819 39.4242 22.4029 39.9334 22.2173C40.0752 22.1719 40.231 22.1183 40.3728 22.0728C39.9614 22.2009 40.6108 22.0656 40.6608 22.0552C41.2512 22.1442 40.4201 21.8934 40.9133 22.1722C40.5625 21.9803 40.8113 22.1563 40.8113 22.1563C41.0354 22.65 41.0936 23.1465 41.154 23.6796C41.2736 24.9739 41.1494 26.2978 41.1031 27.5948C41.0428 28.9001 42.4313 29.9036 43.6111 29.8168C45.0068 29.7168 45.7339 28.5694 45.7942 27.2641C45.9453 24.3135 46.065 20.5853 43.5538 18.5547C41.4822 16.8723 38.735 17.5769 36.6724 18.8648C34.5958 20.1609 33.5832 22.3479 32.1714 24.2578C31.883 24.6358 31.5748 25.0443 31.202 25.3392C30.9748 25.5296 30.7234 25.6773 30.4721 25.825C30.6536 25.7183 30.0444 25.9246 30.3743 25.8824C30.0246 25.9553 30.1223 25.8978 30.3147 25.9743C30.5812 26.0831 30.6345 26.3739 30.5973 26.1115C30.5063 25.4258 30.5791 24.7007 30.5462 24.0189C30.4761 21.7288 29.4545 19.1072 27.266 18.1379C24.1437 16.7697 21.4287 19.3695 19.5061 21.5607C18.497 22.7033 17.548 23.8864 16.569 25.0492C15.7253 26.0567 14.7059 27.1485 13.4618 27.6142C13.7193 27.9368 13.4526 27.3354 13.4504 27.2987C13.5521 27.6749 13.4347 26.91 13.4347 26.91C13.3442 25.8639 13.4776 24.8189 13.387 23.7729C13.2398 22.1347 12.5189 20.5683 11.1508 19.6665C9.46563 18.5341 7.38614 19.1685 5.85264 20.2402C3.07087 22.1971 0.756493 25.8314 0.0349446 29.1552C-0.294445 30.6754 1.78883 31.8203 2.75331 30.5333L2.78123 30.5169Z" fill="#617C97"/>
</svg>
