<svg width="48" height="34" viewBox="0 0 48 34" fill="none" xmlns="http://www.w3.org/2000/svg">
<path d="M3.4012 9.1502C3.70602 8.53864 3.79566 7.87465 4.11842 7.2631C4.47703 6.59912 5.06875 6.0225 5.60668 5.51578C6.53908 4.60718 7.77632 4.20529 9.06733 4.24024C12.0259 4.31013 14.1059 7.87466 15.2535 10.0763C18.8217 16.9257 20.3099 24.7362 21.9416 32.1623C22.1927 33.2806 23.5016 33.9096 24.5775 33.63C25.8147 33.298 26.245 32.1798 26.0657 31.0615C25.3664 26.2738 24.0933 21.4862 22.623 16.8558C21.3499 12.8545 19.8617 8.59106 17.3872 5.14885C14.9307 1.74159 11.2908 -0.59981 6.91564 0.221427C5.06877 0.57089 3.34741 1.72411 2.09225 3.05207C0.729515 4.51981 -0.812533 7.24563 0.496415 9.1502C1.14192 10.0937 2.80948 10.3209 3.4012 9.1502Z" fill="#617C97"/>
<path d="M47.511 9.15019C48.7661 7.29804 47.3496 4.81685 46.1303 3.33164C44.8751 1.794 43.0462 0.693197 41.0917 0.221423C36.7346 -0.809492 33.0588 1.91632 30.6202 5.14884C28.074 8.52116 26.6574 12.9069 25.3844 16.8558C23.8782 21.4513 22.623 26.2738 21.9416 31.0615C21.7803 32.1972 22.2106 33.298 23.4479 33.63C24.5237 33.9271 25.8326 33.2806 26.0837 32.1623C27.7333 24.6838 29.2933 16.9956 32.7719 10.0763C33.8836 7.89212 35.856 4.60717 38.6532 4.25771C39.9262 4.10045 41.1993 4.48486 42.1855 5.28862C42.7593 5.76039 43.2972 6.37196 43.7276 6.96605C44.2117 7.63003 44.2655 8.43379 44.6241 9.15019C45.2158 10.3209 46.8834 10.0937 47.5289 9.15019H47.511Z" fill="#617C97"/>
</svg>
