<svg width="42" height="36" viewBox="0 0 42 36" fill="none" xmlns="http://www.w3.org/2000/svg">
<path d="M33.5672 28.3564C27.3922 30.0855 21.2716 33.4527 14.7164 31.2504C10.0626 29.6851 5.26387 25.9357 4.37656 20.8212C3.92386 18.1456 5.22765 15.5974 7.70849 14.5236C10.1712 13.4679 12.9961 14.0685 14.9156 15.8523C16.8894 17.6724 16.3099 20.5482 14.8251 22.4593C13.974 23.5695 12.7607 24.1884 11.4569 24.6252C10.0988 25.0802 8.79498 24.698 7.50929 24.2066C6.0063 23.6241 5.20953 22.5685 4.0506 21.531C2.81923 20.4207 0.59192 21.6038 0.917869 23.2783C1.53355 26.4817 4.53953 27.9196 7.36442 28.8297C10.6058 29.8671 14.2818 28.8661 16.8351 26.7001C19.3703 24.5524 20.9094 21.1852 20.5292 17.8362C20.1851 14.7238 17.994 12.2666 15.3502 10.8287C12.5434 9.28163 9.01229 9.31805 6.09685 10.5011C3.03654 11.757 1.02652 14.4508 0.265969 17.636C-1.12837 23.4239 3.19952 29.1755 7.65416 32.2697C11.475 34.9088 15.8029 36.1647 20.4205 35.9827C25.4727 35.7825 30.8147 33.8532 35.1245 31.2686C35.7583 30.8864 35.9393 29.9582 35.6858 29.3029C35.3237 28.3929 34.4001 28.1198 33.5309 28.3746L33.5672 28.3564Z" fill="#617C97"/>
<path d="M8.45094 7.62541C14.644 5.8963 20.7465 2.5291 27.3198 4.73144C31.9736 6.29673 36.7724 10.0461 37.6597 15.1606C38.1124 17.8362 36.8086 20.3844 34.3096 21.4582C31.865 22.5139 29.022 21.9133 27.1025 20.1296C25.1287 18.2913 25.7081 15.4337 27.193 13.5226C28.0441 12.4123 29.2574 11.7934 30.5612 11.3566C31.9374 10.9016 33.2231 11.2838 34.5088 11.7753C36.0118 12.3577 36.8086 13.4134 37.9675 14.4508C39.1989 15.5611 41.4262 14.378 41.1002 12.7035C40.4845 9.50009 37.4786 8.06222 34.6537 7.15216C31.4123 6.1147 27.7363 7.13395 25.183 9.29988C22.6478 11.4476 21.1086 14.8148 21.4889 18.1638C21.833 21.2762 24.0241 23.7334 26.6679 25.1713C29.4747 26.7184 33.0058 26.682 35.9032 25.4989C38.9635 24.243 40.9735 21.5493 41.734 18.3641C43.1284 12.5761 38.8005 6.82453 34.3458 3.73034C30.525 1.09118 26.1971 -0.164718 21.5795 0.0172932C16.5273 0.217505 11.1853 2.14687 6.87553 4.73143C6.24174 5.11366 6.06063 6.04189 6.31415 6.69713C6.67631 7.60719 7.59984 7.88022 8.46904 7.62541H8.45094Z" fill="#617C97"/>
</svg>
