<svg width="26" height="36" viewBox="0 0 26 36" fill="none" xmlns="http://www.w3.org/2000/svg">
<path d="M2.64208 5.18243C3.0534 4.62645 3.33202 4.07047 3.88929 3.63362C3.98216 3.56743 4.18121 3.50124 4.30062 3.48801C4.56599 3.48801 4.63233 3.48801 4.48638 3.48801C4.28735 3.30268 4.7252 4.01752 4.64559 3.80572C4.75173 4.11019 4.81807 4.42789 4.88441 4.7456C5.0569 5.57957 5.16305 6.42679 5.28246 7.26077C5.94588 11.6292 5.38861 16.1433 5.46822 20.5382C6.55622 20.3926 7.64422 20.247 8.73223 20.1013C8.67915 19.7572 8.46687 19.4924 8.2413 19.2409C7.63096 18.579 6.51642 18.6187 5.89281 19.2409C5.21613 19.916 5.30901 20.8956 5.89281 21.584C5.90608 21.6105 5.93261 21.6237 5.94587 21.6502C5.78666 21.253 5.61417 20.8691 5.45495 20.472C5.68052 22.6298 8.73222 22.7224 8.78529 20.5382C8.8649 17.7186 8.99759 14.9122 9.02413 12.0793C9.05067 9.33909 8.77203 6.69154 8.33417 3.97781C8.00247 1.87301 6.78178 0.138867 4.5129 0.00649001C2.0848 -0.139125 0.0945629 2.19072 0.00168476 4.4676C-0.0646568 5.9767 1.84599 6.20174 2.60228 5.1692L2.64208 5.18243Z" fill="#617C97"/>
<path d="M8.58628 8.76987C9.34257 7.22105 9.83348 5.12949 11.3328 4.09694C12.8454 3.0644 14.2518 4.09695 14.8356 5.59281C15.7511 7.93589 15.4991 10.6496 15.446 13.0986C15.3796 15.574 15.2469 18.023 15.6848 20.4852C16.0298 22.4312 16.7861 24.3507 18.6171 25.3302C20.7002 26.4422 23.1814 25.7406 24.6807 24.0065C26.1933 22.2591 26.5383 19.7439 25.0124 17.9039C23.8448 16.5007 21.7882 15.9315 20.0368 16.1565C18.0333 16.408 16.2819 17.5465 15.2337 19.2674C14.0395 21.2398 14.3447 23.6755 14.1855 25.873C14.0528 27.6998 13.4823 29.3413 12.1953 30.665C11.638 31.2343 10.9348 31.7505 10.1917 32.0682C9.23641 32.4654 8.3607 32.4654 7.35231 32.4654C5.07017 32.4389 5.07017 36.0263 7.35231 35.9999C9.9529 35.9734 12.0758 35.3247 14.1059 33.6833C16.0165 32.1477 17.1443 29.8575 17.5291 27.4748C17.7281 26.2966 17.7812 25.092 17.8077 23.9006C17.8343 22.8945 17.7812 21.6634 18.4446 20.8162C18.9621 20.1543 19.6786 19.7704 20.4879 19.6248C20.1695 19.6777 20.7666 19.6248 20.7666 19.6248C20.7533 19.6248 21.3636 19.6645 21.0717 19.6248C21.5627 19.691 21.7484 19.7572 22.0669 19.9425C22.2526 20.0484 22.3588 20.1411 22.4649 20.3132C22.6905 20.6706 22.4516 20.1675 22.5578 20.5912C22.4914 20.3529 22.5578 20.975 22.5578 20.9618C22.5578 21.7164 21.8148 22.2988 21.231 22.6033C19.7184 23.3843 18.909 21.1604 18.6834 20.1278C18.4977 19.2806 18.6304 18.3143 18.6171 17.4406C18.6171 15.9977 18.6569 14.5547 18.71 13.1118C18.8029 10.4908 18.8559 7.81675 18.1527 5.26187C17.3035 2.11129 14.2916 -0.509774 10.9215 0.734571C7.89632 1.85978 6.47661 5.12949 6.15817 8.12121C6.02549 9.40527 8.02901 9.89507 8.57301 8.76987H8.58628Z" fill="#617C97"/>
</svg>
