<svg width="22" height="36" viewBox="0 0 22 36" fill="none" xmlns="http://www.w3.org/2000/svg">
<path d="M12.2367 9.31127C12.0003 8.98592 11.7525 8.4474 11.4485 8.17815C11.1219 7.88646 10.784 7.6172 10.4124 7.37039C9.68043 6.87676 8.82459 6.62993 7.96873 6.51774C6.31332 6.30458 4.47771 6.68603 3.05879 7.57232C1.49347 8.55958 0.389881 10.2312 0.0858263 12.0487C-0.218229 13.911 0.299783 15.5826 1.41465 17.0747C3.2052 19.4643 6.8989 20.317 9.64666 19.3073C13.1602 18.0059 14.6242 14.0569 13.2841 10.6463C13.0363 10.0181 12.6985 9.46833 12.2931 8.92983C11.8201 8.32401 11.3246 8.00986 10.6264 7.71817C9.73674 7.34795 8.9597 8.52593 9.38763 9.26638C9.73673 9.8722 10.1647 10.3995 10.5025 11.0053C10.8178 11.5775 10.9079 12.2394 10.9192 12.8901C10.953 14.1354 10.525 15.1787 9.748 15.908C9.16242 16.4577 8.18267 16.7494 7.2705 16.7606C6.21194 16.7718 5.33358 16.4801 4.44394 15.8855C3.71196 15.3919 3.19394 14.5505 3.0025 13.5071C2.77727 12.3404 3.23898 11.1063 4.04979 10.2649C4.91691 9.34493 6.17819 9.05323 7.40567 9.06445C7.87864 9.06445 8.37414 9.17663 8.81333 9.36735C9.10612 9.49075 9.37637 9.65905 9.63538 9.83855C9.97322 10.0629 10.3223 10.2312 10.6264 10.5005C11.4259 11.2297 12.9575 10.2873 12.248 9.31127H12.2367Z" fill="#617C97"/>
<path d="M13.3178 10.9941C13.1151 9.42347 12.462 7.94258 12.2255 6.37194C12.1692 6.02416 12.1354 5.50808 12.1579 4.95835C12.1579 4.84616 12.2368 4.1618 12.1804 4.53203C12.2142 4.29643 12.2705 4.07206 12.3381 3.83646C12.3606 3.74671 12.3944 3.65695 12.4282 3.57842C12.507 3.45501 12.5971 3.32038 12.6985 3.18575C12.3944 3.60085 12.721 3.18576 12.8223 3.09601C12.9124 3.01748 13.1377 2.87162 12.7435 3.15209C12.8223 3.096 12.9124 3.05115 12.9913 3.00628C13.3066 2.83799 12.6647 3.0848 13.1151 2.96139C13.239 2.92773 13.757 2.86041 13.2615 2.91651C13.4192 2.90529 13.5769 2.90529 13.7345 2.91651C13.8133 2.91651 13.8922 2.92771 13.9823 2.93893C14.1962 2.99503 14.3651 3.03992 14.5228 3.09601C14.6129 3.12967 14.6917 3.15209 14.7818 3.18575C15.1647 3.37647 15.525 3.60085 15.8741 3.85889C15.9755 3.93742 16.0543 4.01597 16.1444 4.08328C16.3133 4.22913 16.471 4.38619 16.6287 4.54326C16.7863 4.71154 16.9327 4.87981 17.0904 5.05932C17.1692 5.14907 17.2368 5.23882 17.3156 5.33979C17.0678 5.02566 17.3832 5.45197 17.4282 5.50806C18.712 7.42649 19.1174 9.42347 18.971 11.7682C18.8359 13.7764 18.1264 15.908 16.8539 17.6357C15.266 19.7785 12.9349 21.2481 10.6264 22.5047C7.86736 24.008 4.55655 25.3655 2.88988 28.1814C2.16915 29.4043 1.94391 30.7505 2.10157 32.1529C2.30428 33.903 3.9034 34.9689 5.28854 35.7766C7.06782 36.8088 8.72323 33.9816 6.8989 33.0504C6.14439 32.669 5.27727 32.3324 5.10835 31.4237C4.98448 30.7393 5.41239 29.954 5.76149 29.4043C6.8651 27.6654 9.33135 26.7005 11.0994 25.7357C14.703 23.7612 18.2728 21.5174 20.3224 17.8264C22.9575 13.1033 22.5296 6.48412 18.7458 2.50141C16.7525 0.392264 13.453 -1.01011 10.8854 0.908317C9.64666 1.83948 9.2525 3.58963 9.21872 5.04809C9.17368 7.42649 9.89441 10.2088 11.3133 12.1048C11.6174 12.5199 12.3156 12.5423 12.7322 12.3179C13.239 12.0375 13.3854 11.5326 13.3178 11.0053V10.9941Z" fill="#617C97"/>
</svg>
