<svg width="48" height="24" viewBox="0 0 48 24" fill="none" xmlns="http://www.w3.org/2000/svg">
<path d="M1.17926 15.7507C0.538278 15.5366 1.72163 15.899 1.96816 15.9319C2.54341 16.0143 3.11864 16.0802 3.71032 16.0967C5.10734 16.1625 6.50437 16.179 7.90139 16.1955C9.28197 16.1955 13.7689 16.3108 13.9168 16.3272C14.5578 16.3602 13.3744 16.1461 13.2429 16.0967C14.2126 16.5578 15.3631 16.3766 15.9384 15.3884C16.4479 14.5319 16.2013 13.1483 15.2316 12.6871C14.4263 12.3083 13.5552 12.3907 12.6841 12.3907C11.3035 12.3907 9.92296 12.44 8.54237 12.4565C7.04674 12.4895 5.55111 12.5224 4.05548 12.6047C3.39806 12.6542 2.74062 12.6871 2.0832 12.8024C1.90241 12.8354 1.73806 12.8683 1.55727 12.8848C1.34361 12.9177 0.587585 13.2306 1.17926 13.0165C-0.135578 13.4942 -0.16845 15.2731 1.17926 15.7178V15.7507Z" fill="#617C97"/>
<path d="M16.1849 14.8284C16.3657 13.6754 16.0205 12.5224 16.2342 11.353C16.4643 10.0683 17.056 8.93176 17.7627 7.86114C19.1926 5.7199 21.5264 4.3363 24.0904 4.12217C25.208 4.03982 26.1448 3.24921 26.1448 2.06329C26.1448 1.00914 25.208 -0.0779516 24.0904 0.00440374C20.0144 0.317354 16.8094 2.27744 14.4263 5.53871C13.4237 6.92228 12.6841 8.60229 12.3554 10.2823C12.0267 11.9624 11.9774 14.3013 13.2922 15.586C14.1305 16.4096 15.9548 16.1625 16.1685 14.8284H16.1849Z" fill="#617C97"/>
<path d="M46.9851 13.033C47.6261 13.2636 46.4427 12.8683 46.1962 12.8354C45.5552 12.7201 44.9306 12.6707 44.2896 12.6378C42.8105 12.5389 41.3313 12.506 39.8521 12.473C38.455 12.4401 37.0416 12.4072 35.6446 12.3907C34.7406 12.3907 33.7873 12.2919 32.9491 12.6872C31.9794 13.1484 31.7329 14.5154 32.2424 15.3884C32.8176 16.3767 33.9681 16.5579 34.9378 16.0967C34.905 16.1132 33.6723 16.3767 34.1982 16.3437C34.3462 16.3437 34.4776 16.3437 34.6256 16.3273C35.0693 16.3108 42.8926 16.1955 44.3061 16.1296C44.9142 16.0967 45.4894 16.0637 46.0975 15.9814C46.2783 15.9484 46.4427 15.9319 46.6235 15.899C46.8207 15.8661 47.6096 15.5696 47.0015 15.7673C48.3492 15.3061 48.3163 13.5272 47.0015 13.066L46.9851 13.033Z" fill="#617C97"/>
<path d="M34.8721 15.586C36.2198 14.2683 36.0883 11.9953 35.8089 10.2823C35.5295 8.58582 34.7077 6.93875 33.738 5.53871C31.4535 2.22803 28.0842 0.300883 24.0739 0.00440374C22.9563 -0.0779517 22.0195 1.00914 22.0195 2.06329C22.0195 3.24921 22.9563 4.03982 24.0739 4.12217C26.6872 4.3363 28.906 5.73637 30.4016 7.86114C31.0919 8.84941 31.585 9.90351 31.8644 11.0565C32.1767 12.3083 31.7822 13.5766 31.9794 14.8284C32.1931 16.1625 34.0174 16.4096 34.8557 15.586H34.8721Z" fill="#617C97"/>
<path d="M1.04776 23.5745C3.08577 24.1839 5.41959 23.9698 7.52334 23.9369C10.9584 23.9039 43.4679 23.3604 45.473 23.3439C48.2999 23.3439 48.2999 18.9297 45.473 18.9461C41.0683 18.9461 36.6636 19.2097 32.2753 19.3579C24.83 19.605 6.4386 20.1979 4.68 20.2968C3.44734 20.3627 2.23112 20.3791 1.04776 20.7415C-0.349255 21.1532 -0.349255 23.1462 1.04776 23.5745Z" fill="#617C97"/>
</svg>
