<svg width="22" height="36" viewBox="0 0 22 36" fill="none" xmlns="http://www.w3.org/2000/svg">
<path d="M3.04436 1.18607C3.28805 2.49951 3.70634 3.81214 4.02329 5.12432C4.35865 6.50656 4.7455 7.87473 5.02307 9.28217C5.57529 12.0509 5.76531 14.9468 5.8356 17.7722C5.92137 20.6215 5.82167 23.4653 5.32464 26.2674C5.08179 27.62 4.75648 28.9388 4.36417 30.2477C4.18058 30.88 3.96434 31.493 3.73093 32.1107C3.43929 32.8571 3.07942 33.5187 3.15997 34.351C3.27428 35.6623 4.45436 36.3723 5.61975 35.8002C7.02887 35.1051 7.49839 33.2493 7.96902 31.8532C8.42708 30.4794 8.79177 29.0653 9.04427 27.6443C9.59584 24.4893 9.72205 21.291 9.58949 18.0883C9.45357 14.9429 9.12004 11.7107 8.25555 8.69876C7.84109 7.22548 7.30645 5.78505 6.74836 4.36043C6.20116 2.94222 5.68583 1.3651 4.57287 0.279956C3.86968 -0.400876 2.86587 0.296061 3.02721 1.19077L3.04436 1.18607Z" fill="#617C97"/>
<path d="M18.1318 0.271562C17.0922 1.28807 16.6497 2.68588 16.1046 4.00845C15.5137 5.43739 14.9991 6.91122 14.5515 8.3949C13.6248 11.4178 13.3349 14.6233 13.1497 17.772C12.9502 20.9716 13.128 24.1713 13.624 27.3216C13.8484 28.7717 14.2273 30.1796 14.6577 31.5734C15.1128 33.0262 15.6292 35.0631 17.0898 35.7903C18.2548 36.373 19.4458 35.653 19.545 34.3491C19.6597 33.0691 18.7989 31.7179 18.4191 30.5168C18.0054 29.2217 17.6948 27.8984 17.4293 26.5721C16.8897 23.7812 16.7821 20.919 16.8647 18.08C16.93 15.2457 17.1219 12.3674 17.6235 9.58279C17.8806 8.17937 18.2327 6.78751 18.6066 5.40849C18.9805 4.02946 19.403 2.59022 19.6601 1.1868C19.8262 0.277675 18.8191 -0.404537 18.1146 0.276262L18.1318 0.271562Z" fill="#617C97"/>
<path d="M0.139278 17.837C-0.250321 18.5256 0.236294 19.5379 0.872163 19.9273C1.44901 20.2672 2.29517 20.3362 2.93452 20.2835C3.71582 20.2107 4.56367 20.2511 5.34497 20.1783C6.98713 20.0203 8.68907 20.0901 10.332 20.1103C12.0419 20.1403 13.764 20.2516 15.4597 20.3324C16.3184 20.3793 17.188 20.4325 18.0576 20.4858C18.4331 20.5146 18.8196 20.5497 19.1889 20.5896C19.245 20.593 20.0145 20.7206 19.7156 20.6333C22.009 21.2737 22.9882 17.645 20.6885 17.0157C20.0345 16.8378 19.3127 16.8568 18.6349 16.798C17.795 16.7178 16.958 16.6838 16.1102 16.6434C14.2914 16.5492 12.4819 16.4901 10.6581 16.4818C9.00257 16.4838 7.34997 16.532 5.69402 16.6374C4.85201 16.6893 4.02504 16.8684 3.18887 17.0126C2.48375 17.1303 1.74262 17.286 1.12368 17.6617C1.74497 17.8204 2.37085 17.9967 2.98586 18.1665L2.69827 17.9822C2.18775 17.0891 0.631092 16.9421 0.128384 17.8306L0.139278 17.837Z" fill="#617C97"/>
</svg>
