<svg width="38" height="36" viewBox="0 0 38 36" fill="none" xmlns="http://www.w3.org/2000/svg">
<path d="M10.3066 24.207C10.6363 24.5826 10.9662 24.9579 11.2988 25.332C11.5365 25.6039 11.884 25.9944 12.2686 26.4297C11.7912 26.8731 11.3734 27.2605 11.0283 27.583C9.10318 29.3748 7.13713 31.084 5.1748 32.8359L5.1709 32.8389C4.74432 33.2274 4.28709 33.5871 3.81152 33.9736C3.34694 34.3512 2.87111 34.7497 2.44141 35.1963L2.43945 35.1943C2.04059 35.6092 1.44173 35.5824 0.970703 35.2314C0.741632 35.0607 0.585026 34.8373 0.526367 34.6133C0.471259 34.4025 0.493655 34.1624 0.670898 33.9053C1.55089 32.6279 2.7266 31.5138 3.87305 30.3672L3.875 30.3652C4.55135 29.6791 7.05845 27.2868 10.3066 24.207ZM16.6201 24.749L17.3174 25.4844L17.3232 25.4902C17.8876 26.0727 18.4509 26.6037 18.8271 27.1943V27.1953C19.1305 27.6742 19.1467 28.1078 19.0205 28.4697C18.8886 28.8478 18.5843 29.1907 18.1797 29.4209C17.7758 29.6507 17.3081 29.7473 16.8828 29.6748C16.5223 29.6133 16.1719 29.4284 15.8936 29.0586L15.7793 28.8887L15.7783 28.8877L15.7676 28.8936C15.7615 28.8857 15.7563 28.8771 15.75 28.8691L15.6309 28.7266C15.4477 28.5162 14.5495 27.5019 13.6631 26.5C14.3881 25.8276 15.2149 25.061 16.1152 24.2285C16.2841 24.4015 16.4528 24.5747 16.6201 24.749ZM15.6172 28.9844L15.3379 29.1543C15.3172 29.1286 15.2957 29.1027 15.2734 29.0771C15.2977 29.0598 15.3251 29.0435 15.3555 29.0293C15.4537 28.9835 15.5455 28.9769 15.6172 28.9844ZM13.2627 21.4062C13.6669 21.7944 14.0692 22.1886 14.4707 22.5879L14.4756 22.5918C14.7899 22.8971 15.1017 23.206 15.4121 23.5166C14.5283 24.3339 13.7147 25.0862 13 25.749C12.6187 25.3173 12.2773 24.9322 12.0488 24.6709L12.0469 24.668L11.0332 23.5186C11.7499 22.8395 12.496 22.1314 13.2627 21.4062ZM32.4492 5.43555C32.1442 6.50982 31.8384 7.58369 31.5322 8.65723C29.7731 10.2755 27.6584 12.223 25.4492 14.2578C22.2853 17.1721 18.9277 20.2675 16.1465 22.8379C15.8233 22.5142 15.4991 22.1918 15.1719 21.874C14.7823 21.4867 14.3882 21.1014 13.9902 20.7188C19.5766 15.4378 26.0052 9.39055 29.333 6.26758C29.7839 6.14452 30.2319 6.02187 30.6748 5.90234C31.2662 5.74762 31.8576 5.5912 32.4492 5.43555ZM8.42578 17.7236L8.58008 17.7617C9.57436 18.0968 10.3558 18.8257 11.2744 19.6055L11.2773 19.6084C11.7049 19.9659 12.1202 20.3394 12.5322 20.7197C11.7912 21.4206 11.0695 22.1056 10.375 22.7637C10.0185 22.3503 9.66453 21.9349 9.31543 21.5127L9.31445 21.5117C8.62036 20.6757 7.93982 20.0261 7.48047 19.1924L7.41211 19.0684C7.30397 18.7538 7.37005 18.383 7.57813 18.0967C7.77737 17.8228 8.07478 17.6662 8.42578 17.7236ZM36.5742 5.38184C35.7883 8.13588 34.9995 10.8878 34.208 13.6396L34.207 13.6416C34.0772 14.1005 33.8115 14.3693 33.5039 14.5107C33.1837 14.658 32.7877 14.6805 32.4082 14.5781C32.0283 14.4756 31.7025 14.2576 31.5078 13.9746C31.3222 13.7044 31.2344 13.3461 31.3633 12.8887C31.7164 11.6611 32.0654 10.432 32.416 9.20312C32.8312 8.82123 33.2253 8.45882 33.5947 8.11914C34.5795 7.21355 35.389 6.47009 35.9541 5.95117C36.2153 5.71137 36.4242 5.51929 36.5742 5.38184ZM35.8184 4.67676C35.8075 4.68569 35.7954 4.69588 35.7881 4.70215C35.7869 4.70316 35.7827 4.70604 35.7783 4.70996C35.7765 4.71158 35.7712 4.71636 35.7646 4.72266C35.7611 4.72611 35.7526 4.73543 35.7471 4.74121C35.7371 4.75223 35.7047 4.79271 35.6846 4.82324C35.6822 4.82941 35.6823 4.83667 35.6807 4.84375C35.565 4.94983 35.4307 5.07391 35.2783 5.21387C34.7179 5.72843 33.9166 6.46347 32.9434 7.3584C33.1536 6.61927 33.3634 5.87995 33.5732 5.14062C34.4107 4.91822 35.2467 4.69248 36.0801 4.46289C35.9358 4.58064 35.8551 4.64659 35.8184 4.67676ZM33.2373 1.26074L33.2363 1.26172C32.3737 1.9547 31.5553 2.81176 30.7939 3.52832C30.5293 3.77328 29.836 4.42531 28.8311 5.36816C27.9776 5.5993 27.1316 5.81884 26.2783 5.98633L26.2705 5.98828C25.5541 6.14153 24.9708 6.28803 24.3682 6.25L24.3486 6.23926L24.2422 6.22949L24.0254 6.19531C23.5501 6.08569 23.2879 5.78045 23.2031 5.46582C23.1052 5.10238 23.2197 4.63567 23.6982 4.28613L23.7002 4.28516C24.2452 3.88255 24.8997 3.71476 25.6836 3.43555L25.6826 3.43457C26.969 2.98534 28.2775 2.65498 29.6221 2.25684L29.623 2.25781C30.8624 1.90522 32.0935 1.54606 33.3252 1.19434C33.2958 1.21636 33.266 1.2378 33.2373 1.26074ZM32.7666 4.31836C32.1395 4.48404 31.5115 4.64894 30.8828 4.81348C31.1563 4.55774 31.3557 4.36997 31.4727 4.26172L31.4756 4.25879C32.0945 3.67643 32.6699 3.0862 33.2695 2.54687C33.1021 3.13748 32.9341 3.72787 32.7666 4.31836ZM34.9824 2.97754C35.1823 3.17209 35.3814 3.36769 35.5811 3.5625C35.0189 3.7167 34.4553 3.86859 33.8906 4.01953C34.0466 3.46933 34.2034 2.91935 34.3594 2.36914C34.5676 2.57233 34.7748 2.77546 34.9824 2.97754ZM34.9609 1.55859C35.4375 1.50379 35.9065 1.64554 36.2793 2.0127C36.5632 2.29233 36.748 2.73193 36.7617 3.18164C36.7631 3.22645 36.7608 3.27071 36.7588 3.31445C36.398 2.96071 36.0394 2.60987 35.6807 2.26074C35.4404 2.02695 35.201 1.79297 34.9609 1.55859ZM35.6143 0.552734C36.6127 0.275858 37.5455 1.12118 37.4922 2.03711C37.3643 1.76379 37.1948 1.51105 36.9814 1.30078C36.5477 0.873477 36.0492 0.64548 35.541 0.573242C35.5648 0.566741 35.5885 0.560201 35.6123 0.553711L35.6143 0.552734Z" fill="#617C97" stroke="black"/>
</svg>
