<svg width="43" height="36" viewBox="0 0 43 36" fill="none" xmlns="http://www.w3.org/2000/svg">
<path d="M9.27536 12.3275C10.3962 11.3791 11.2723 10.0141 12.1893 8.86903C12.7761 8.15421 13.3059 7.40235 13.9498 6.72457C14.2198 6.43252 14.8388 5.68214 15.2893 5.87781C16.9565 6.5809 17.0968 8.65363 17.1967 10.1765C17.2699 11.2632 17.4456 12.3439 17.5188 13.4306C17.5885 14.5714 17.5293 15.7333 17.4965 16.8801C17.431 19.1738 17.523 21.4649 17.5599 23.7525C17.5922 25.8518 17.5297 27.9702 17.617 30.073C17.653 30.8858 18.1552 31.5903 18.9778 31.8179C19.8554 32.049 21.1053 31.5308 21.2375 30.5532C21.598 28.04 21.3337 25.3955 21.2957 22.8654C21.2713 21.6816 21.2679 20.5032 21.2435 19.3193C21.2189 17.233 21.3782 15.1291 21.2379 13.0563C21.1585 11.869 20.9691 10.6746 20.8897 9.48725C20.8062 8.23279 20.6259 6.96386 20.0894 5.8102C19.1908 3.88993 17.2093 2.08064 14.937 2.24161C12.5755 2.40111 11.0356 4.68073 9.84828 6.44791C8.86265 7.92708 7.01071 9.58528 7.15403 11.4828C7.2405 12.5619 8.42861 13.0509 9.26212 12.335L9.27536 12.3275Z" fill="#617C97"/>
<path d="M20.4243 10.6192C21.6581 9.05133 22.1406 7.07657 24.3256 6.49646C25.0003 6.32197 25.7072 6.56312 26.1828 6.8314C26.7287 7.1292 27.0647 7.58083 27.4089 8.16666C28.0819 9.31227 28.4255 11.0093 28.564 12.2673C28.8226 14.4812 28.7341 16.7358 28.7669 18.9564C28.802 21.6616 28.8426 24.3464 28.9118 27.0497C28.9676 29.3093 29.2231 31.6985 30.507 33.6432C31.9397 35.7811 34.4509 36.3873 36.8805 35.7726C39.297 35.1654 40.8537 33.2754 41.8401 31.1361C42.7477 29.1632 39.9641 27.4619 38.8496 29.4133C38.0551 30.7667 36.642 32.5405 34.8098 32.2782C32.9909 32.0083 32.8529 29.1879 32.7688 27.8122C32.4782 22.7177 32.897 17.5678 32.4224 12.4909C32.113 9.10814 31.123 5.01794 27.7268 3.38642C25.6085 2.36646 23.1104 2.534 21.1391 3.80865C19.1092 5.1339 17.6081 7.59981 18.1068 10.042C18.3008 10.9735 19.7753 11.4387 20.3978 10.6342L20.4243 10.6192Z" fill="#617C97"/>
<path d="M35.6919 30.5627C36.6385 31.3621 37.7009 30.9156 38.7833 30.6834C39.3046 30.5785 40.1239 30.079 40.5668 30.2617C40.3461 30.1265 40.1198 30.0119 39.8991 29.8768C39.8456 29.7856 39.8053 29.687 39.7726 29.6013C39.7808 29.7356 39.7834 29.8903 39.7784 30.032C39.7612 30.4237 39.7914 30.8058 39.7951 31.2029C39.8178 32.0232 39.7436 32.829 39.7113 33.6458C39.6471 35.4006 42.2249 35.6392 42.7375 34.0465C43.1097 32.846 43.0109 31.5655 42.8953 30.3466C42.7762 29.1818 42.7172 27.8787 41.3736 27.4259C40.4995 27.1407 39.5558 27.3984 38.7242 27.6966C37.7713 28.029 36.8047 28.2476 35.938 28.7567C35.323 29.123 35.1205 30.0711 35.6996 30.5757L35.6919 30.5627Z" fill="#617C97"/>
<path d="M3.00405 6.37346C3.44313 5.70776 3.78743 5.06111 4.33714 4.52359C4.5506 4.31569 4.85885 4.08873 5.03312 4.02458C5.53503 3.8266 5.9994 4.13595 5.36787 3.78259C5.26134 3.72152 4.68318 3.00805 4.86115 3.34102C4.96523 3.69856 5.04487 4.10469 5.11126 4.51833C5.1465 4.7587 5.26191 5.52639 5.27776 5.67362C5.36054 6.35568 5.43008 7.04525 5.47872 7.72933C5.61479 9.28376 5.6902 10.8552 5.77888 12.4192C6.0217 17.8532 6.02646 23.0926 6.09092 28.5237C6.09707 28.6244 6.09148 28.6449 6.09148 28.6449C6.09741 31.2105 9.91498 31.2143 9.9223 28.6412C9.93133 23.5155 10.0215 18.7084 9.87714 13.6524C9.78598 10.7012 9.69891 7.81712 9.30045 4.88408C9.16508 3.90206 9.0506 2.92555 8.66502 1.9987C7.94386 0.29021 6.57537 -0.235191 4.68325 0.0919239C2.06496 0.535954 0.239823 3.08159 0.00824879 5.57362C-0.156832 7.24684 2.2013 7.59267 3.01171 6.38649L3.00405 6.37346Z" fill="#617C97"/>
</svg>
