<svg width="40" height="36" viewBox="0 0 40 36" fill="none" xmlns="http://www.w3.org/2000/svg">
<path d="M39.6263 1.16665C38.4241 -0.189965 36.017 -0.162676 34.423 0.325525C32.5003 0.901323 30.9684 2.27402 29.5591 3.61678C28.1797 4.94258 26.9229 6.23843 25.2083 7.1664C23.5688 8.052 21.8212 8.8225 20.014 9.25489C18.2869 8.83998 16.7197 8.11964 15.1328 7.33213C13.2743 6.42392 11.9149 5.03855 10.4671 3.60525C9.14466 2.31641 7.68471 1.06603 5.89623 0.411804C4.24354 -0.182066 1.65731 -0.288503 0.386058 1.15242C-0.427169 2.08067 0.112368 3.40021 1.3691 3.49352C2.07922 3.54297 2.73607 3.23118 3.45719 3.33313C4.28809 3.45141 4.94976 3.72383 5.64441 4.15374C7.19552 5.11793 8.36432 6.68906 9.63068 7.95082C10.7739 9.10593 12.1095 9.97649 13.5669 10.6805C11.9903 11.198 10.5698 11.9797 9.24927 12.9984C6.14731 15.3741 4.74233 19.5708 4.77014 23.3116C4.784 26.8254 6.27355 30.3286 8.94546 32.7149C10.5568 34.1538 12.5701 35.053 14.6573 35.6365C16.2707 36.0961 23.4278 36.1091 24.99 35.7366C27.1496 35.2228 29.1179 34.2496 30.8219 32.8972C33.7263 30.5938 35.1204 26.8532 35.229 23.3094C35.3434 19.6059 33.8283 15.6867 30.9945 13.196C29.6641 12.0291 28.0749 11.2037 26.3858 10.6499C27.8324 9.91229 29.1495 9.09115 30.3532 7.94264C31.5847 6.73936 32.656 5.33293 34.0776 4.31587C34.7402 3.84433 35.4271 3.51562 36.233 3.35449C37.069 3.17642 37.8128 3.51995 38.6257 3.47228C39.8795 3.39116 40.4349 2.06051 39.609 1.13729L39.6263 1.16665ZM30.9169 23.0613C30.9564 25.6019 29.9391 28.0148 28.0024 29.7528C26.8604 30.7687 25.3162 31.3071 23.8551 31.6812C22.5702 32.0146 17.73 32.0252 16.5327 31.7614C15.0361 31.4317 13.4482 30.8795 12.2478 29.9327C10.2053 28.3066 9.19167 25.8458 9.11574 23.3452C9.02989 20.5568 10.1944 17.8848 12.2183 15.9215C13.2892 14.887 14.648 14.238 16.0657 13.7905C17.1935 13.4283 18.4016 13.236 19.5357 12.8507C19.5744 12.8484 19.6067 12.8693 19.6454 12.8671C19.7702 12.8749 19.8864 12.8681 20.0175 12.8528C20.136 12.8838 20.2758 12.8832 20.3919 12.8764C20.422 12.8595 20.4694 12.8719 20.4994 12.8549C21.5228 13.1972 22.623 13.3984 23.6591 13.6944C25.1066 14.1106 26.4432 14.7457 27.5899 15.7033C29.7624 17.5496 30.8957 20.3145 30.9255 23.0759L30.9169 23.0613Z" fill="url(#paint0_linear_108_2471)"/>
<defs>
<linearGradient id="paint0_linear_108_2471" x1="20" y1="0" x2="20" y2="36" gradientUnits="userSpaceOnUse">
<stop stop-color="#617C97"/>
<stop offset="1" stop-color="#617C97"/>
</linearGradient>
</defs>
</svg>
