<svg width="40" height="36" viewBox="0 0 40 36" fill="none" xmlns="http://www.w3.org/2000/svg">
<path d="M9.84882 9.70898C10.3507 8.4192 11.1159 7.1382 12.2446 6.27741C13.4601 5.35992 14.2206 5.9893 14.9577 7.11899C16.3746 9.29251 16.7806 12.217 16.9337 14.501C17.2133 18.5932 17.3809 22.8162 17.0971 26.9231C17.0249 27.9978 18.0611 28.891 19.0955 28.8975C20.2415 28.8968 21.0185 27.9945 21.0906 26.9198C21.253 24.5858 21.1732 22.2374 21.1202 19.9043C21.0782 17.2764 21.0151 14.6541 20.5904 12.0378C19.9977 8.29808 18.6477 3.64743 14.7011 2.18964C12.5416 1.38095 10.5028 2.81999 9.04291 4.21781C7.51741 5.66672 6.81233 7.67298 7.23773 9.70512C7.54868 11.105 9.39192 10.8296 9.83538 9.7013L9.84882 9.70898Z" fill="#617C97"/>
<path d="M20.1607 10.5346C20.7716 8.93511 21.7043 7.18296 23.1548 6.16946C23.6987 5.7894 24.4198 5.35112 25.0565 5.73258C25.674 6.08541 25.9536 7.20169 26.1393 7.80379C26.7418 9.77772 26.7762 11.9585 26.9016 14.014C27.0243 16.2275 27.0489 18.4558 27.137 20.6672C27.2147 23.0498 28.2478 25.4823 29.4943 27.4876C31.3097 30.4202 34.0859 32.6264 37.4289 33.6153C40.0077 34.3802 41.11 30.4044 38.5312 29.6395C35.4339 28.7201 33.4846 26.5082 32.1743 23.7224C32.0773 23.4899 32.005 23.3069 31.9328 23.1239C31.8244 22.8494 31.7238 22.5616 31.6444 22.2683C31.5004 21.7786 31.3911 21.291 31.2896 20.7902C31.4019 21.4566 31.303 20.7978 31.2845 20.6455C31.2557 20.2039 31.2692 19.7511 31.2616 19.3039C31.2352 17.9072 31.1742 16.5084 31.0921 15.1152C30.9586 12.7361 30.8194 10.3361 30.3993 7.98812C29.9962 5.703 28.9708 3.25718 26.8631 2.05294C24.5138 0.710639 21.7298 1.95421 19.9094 3.57116C18.1778 5.09718 17.3001 7.42992 16.9921 9.64531C16.708 11.6972 19.4019 12.5101 20.155 10.5136L20.1607 10.5346Z" fill="#617C97"/>
<path d="M30.6121 18.7912C31.3001 18.4403 31.4413 17.8301 31.8459 17.2287C31.8614 17.2021 32.1972 16.9334 32.2994 16.8501C32.0505 17.0621 32.8464 16.6489 32.4844 16.7786C32.5768 16.7429 33.2715 16.6261 32.8945 16.6587C33.1387 16.6388 33.3809 16.6532 33.6097 16.6599C33.1599 16.6332 33.7997 16.733 33.8958 16.7525C34.2433 16.8625 33.587 16.5761 34.0434 16.8369C34.0796 16.9284 34.1616 17.0638 34.2303 17.1916C34.3732 17.4682 34.0879 16.7914 34.2855 17.3117C34.3443 17.487 34.382 17.668 34.433 17.8566C34.5594 18.4071 34.4336 17.7329 34.4742 18.0927C34.5087 18.5552 34.4796 19.0346 34.4315 19.4854C34.4776 19.0689 34.3746 19.7363 34.3668 19.7496C34.3079 20.0347 34.2355 20.3122 34.1553 20.603C33.9894 21.1636 33.7831 21.7012 33.5423 22.2367C32.824 23.7748 31.8542 25.2223 30.7945 26.5477C28.8706 28.9557 26.0219 30.4635 23.6808 32.4207C22.8027 33.1589 22.9075 34.6359 23.6809 35.3966C24.5462 36.2453 25.8156 36.1557 26.6881 35.3966C28.0663 34.2001 29.6015 33.1641 31.0179 32.0249C32.6601 30.7135 33.932 29.2083 35.1261 27.4992C36.9897 24.8263 38.6682 21.4277 38.4198 18.0797C38.2512 15.8222 37.1265 13.6386 34.7915 12.9775C33.3569 12.583 31.7869 12.8197 30.4822 13.4913C29.7074 13.8989 29.089 14.5907 28.7087 15.3654C28.1769 16.4609 28.003 17.4953 28.7887 18.511C29.2208 19.059 30.0631 19.0266 30.622 18.7436L30.6121 18.7912Z" fill="#617C97"/>
<path d="M3.0412 6.52802C3.76507 5.47136 4.54541 3.82697 5.80956 4.05326C5.30813 3.96162 5.10941 3.68866 4.8859 3.3661C5.03453 3.66359 5.12891 4.05408 5.20987 4.4369C5.31712 4.95873 5.42436 5.48058 5.52386 6.0157C5.57437 6.32798 5.6249 6.64024 5.66198 6.94485C5.67126 7.021 5.75524 7.58268 5.68259 7.0629C5.7068 7.23616 5.73099 7.40944 5.75521 7.5827C5.94631 9.1267 6.08941 10.661 6.22473 12.2085C6.64037 17.2642 6.91553 22.3458 7.03887 27.4116C8.32019 27.2403 9.58036 27.0745 10.8617 26.9032C10.8097 26.5015 10.5438 26.1902 10.2836 25.8998C9.57373 25.1222 8.26403 25.1888 7.53976 25.9086C6.74213 26.6929 6.85436 27.8198 7.53527 28.6163C7.56212 28.6316 7.58123 28.6602 7.60032 28.6889C7.41197 28.2447 7.21796 27.7796 7.02961 27.3354C7.29528 29.8254 10.8787 29.9421 10.9209 27.4153C11.0217 22.088 10.6884 16.7073 10.2738 11.4044C10.0615 8.60823 9.92299 5.62406 9.12752 2.93763C8.85102 2.00024 8.39846 0.873722 7.468 0.412954C5.1026 -0.779098 2.40941 0.79975 1.07019 2.72708C0.439336 3.62431 0.0981405 4.66931 0.00483276 5.74968C-0.120184 7.46735 2.21452 7.79162 3.03915 6.56225L3.0412 6.52802Z" fill="#617C97"/>
</svg>
